<?xml version="1.0" encoding="UTF-8"?>
<svg preserveAspectRatio="none" id="_レイヤー_2" data-name="レイヤー 2" xmlns="http://www.w3.org/2000/svg" viewBox="0 0 906.81 506.81">
  <defs>
    <style>
      .cls-1 {
        fill: #fff;
      }
    </style>
  </defs>
  <g id="ABOUT">
    <g id="_コンセプト" data-name="コンセプト">
      <path class="cls-1" d="M883.42,502.44c-3.61,0-3.61-1.48-7.22-1.48-3.61,0-3.61,4.59-7.23,4.59-3.61,0-3.61,1.2-7.23,1.2-3.61,0-3.61-1.42-7.23-1.42-3.61,0-3.61.08-7.23.08s-3.61-4.62-7.23-4.62-3.61-.14-7.23-.14-3.61.71-7.22.71c-3.61,0-3.61,1.48-7.23,1.48-3.61,0-3.61,1.74-7.23,1.74s-3.61-4.3-7.23-4.3-3.61,2.79-7.23,2.79c-3.61,0-3.61-3.03-7.23-3.03-3.61,0-3.61,4.29-7.23,4.29-3.61,0-3.61.5-7.23.5-3.61,0-3.61-4.29-7.23-4.29-3.61,0-3.61,2.06-7.23,2.06s-3.61,2.25-7.23,2.25c-3.61,0-3.61-3.32-7.23-3.32-3.61,0-3.61,4.25-7.23,4.25-3.61,0-3.61-1.64-7.22-1.64-3.61,0-3.61-.36-7.22-.36s-3.61.48-7.22.48c-3.61,0-3.61-1.15-7.22-1.15-3.61,0-3.61,2.01-7.22,2.01-3.61,0-3.61-3.67-7.22-3.67-3.61,0-3.61-.22-7.22-.22-3.61,0-3.61-1.12-7.22-1.12-3.61,0-3.61,6.29-7.22,6.29s-3.61-3.13-7.23-3.13c-3.61,0-3.61.13-7.23.13-3.61,0-3.61,2.65-7.23,2.65s-3.61-3.01-7.22-3.01c-3.61,0-3.61,1.42-7.22,1.42s-3.61-.4-7.22-.4c-3.61,0-3.61,2.22-7.22,2.22s-3.61-5.82-7.22-5.82c-3.61,0-3.61,5.75-7.22,5.75-3.61,0-3.61.19-7.22.19-3.61,0-3.61-1.82-7.23-1.82-3.61,0-3.61-2.93-7.23-2.93-3.61,0-3.61,2.54-7.23,2.54-3.61,0-3.61,2.25-7.22,2.25-3.61,0-3.61-.53-7.22-.53-3.61,0-3.61-4.51-7.22-4.51s-3.61,4.02-7.22,4.02-3.61-1.32-7.22-1.32c-3.61,0-3.61.38-7.23.38-3.61,0-3.61,1.67-7.23,1.67-3.61,0-3.61-5.81-7.23-5.81-3.61,0-3.61,6.45-7.23,6.45s-3.61-3.04-7.22-3.04-3.61-.05-7.22-.05c-3.61,0-3.61-1.44-7.22-1.44-3.61,0-3.61-1.84-7.23-1.84-3.61,0-3.61-.23-7.23-.23s-3.61,6-7.23,6c-3.61,0-3.61-2.23-7.23-2.23-3.61,0-3.61,2.09-7.22,2.09-3.61,0-3.61.25-7.22.25-3.61,0-3.61.24-7.23.24s-3.61-1.01-7.23-1.01-3.61-4.39-7.23-4.39-3.61,1.76-7.23,1.76c-3.61,0-3.61-2.98-7.23-2.98-3.61,0-3.61,5.42-7.23,5.42-3.61,0-3.61.33-7.23.33-3.61,0-3.61-4.47-7.23-4.47s-3.61.22-7.23.22c-3.61,0-3.61,1.84-7.23,1.84-3.61,0-3.61-3.24-7.23-3.24s-3.61,6.39-7.23,6.39c-3.61,0-3.61-5.1-7.23-5.1s-3.61,4.46-7.23,4.46c-3.61,0-3.61-2.87-7.23-2.87s-3.61-2.26-7.23-2.26c-3.61,0-3.61,5.61-7.23,5.61-3.61,0-3.61-.84-7.23-.84-3.61,0-3.61-1.14-7.23-1.14-3.61,0-3.61-1.4-7.23-1.4-3.61,0-3.61-.03-7.23-.03s-3.61-1.78-7.23-1.78-3.61,3.41-7.23,3.41-3.61-2.97-7.23-2.97c-3.61,0-3.61,4.21-7.23,4.21-3.61,0-3.61-2.3-7.23-2.3-3.61,0-3.61-1.9-7.23-1.9-3.61,0-3.61,5-7.23,5-3.61,0-3.61-.82-7.23-.82-3.62,0-3.62-4.48-7.23-4.48-3.61,0-3.61,1.55-7.22,1.55-3.61,0-3.61-.21-7.22-.21s-3.61-1.4-7.23-1.4c-3.61,0-3.61-.48-7.23-.48-3.61,0-3.61.34-7.23.34s-3.61.14-7.23.14c-3.61,0-3.61,4.03-7.23,4.03-3.61,0-3.61-3.54-7.23-3.54-3.61,0-3.61,3.5-7.23,3.5-3.61,0-3.61-3.84-7.23-3.84-3.61,0-3.61.32-7.23.32-3.61,0-3.61.16-7.23.16-3.62,0-3.62.51-7.23.51-3.61,0-3.61-1.74-7.23-1.74s-3.62,1.04-7.23,1.04c-3.62,0-3.62,2.9-7.23,2.9-3.62,0-3.62.38-7.23.38-3.62,0-3.62,1.06-7.23,1.06-3.62,0-3.62-.39-7.23-.39s-3.62-2.77-7.23-2.77-3.61.42-7.23.42c-3.62,0-3.62,1.57-7.23,1.57-3.62,0-3.62-3.29-7.23-3.29-3.62,0-3.62,4.27-7.23,4.27s-3.62-.5-7.23-.5-3.62.68-7.24.68c-3.62,0-3.62-5.4-7.23-5.4-3.62,0-3.62,2.62-7.24,2.62s-3.62,2.07-7.24,2.07c-2.71,0-6.41.26-8.77-.72s-2.73-5.98-4.57-7.82c-1.84-1.84-4.96-2.89-5.98-5.34s-3.58-5.29-3.58-8c0-3.59-.52-3.59-.52-7.19,0-3.59,4.02-3.59,4.02-7.19,0-3.59-2.06-3.59-2.06-7.18,0-3.59,2.52-3.59,2.52-7.18,0-3.59-1.54-3.59-1.54-7.18,0-3.59,1.91-3.59,1.91-7.18,0-3.59-2.54-3.59-2.54-7.19s2.11-3.59,2.11-7.19c0-3.59.1-3.59.1-7.18,0-3.59-.26-3.59-.26-7.18,0-3.59-2.35-3.59-2.35-7.18,0-3.59,2.95-3.59,2.95-7.19,0-3.59-1.83-3.59-1.83-7.19s3.78-3.59,3.78-7.19c0-3.59-6.39-3.59-6.39-7.18,0-3.59.36-3.59.36-7.19,0-3.59,2.02-3.59,2.02-7.19s-1.43-3.59-1.43-7.19c0-3.59,2.08-3.59,2.08-7.19,0-3.59,1.66-3.59,1.66-7.19,0-3.59,1.37-3.59,1.37-7.19,0-3.59-1.27-3.59-1.27-7.19s-1.4-3.59-1.4-7.19-2.27-3.59-2.27-7.19c0-3.59,3.76-3.59,3.76-7.19,0-3.59.82-3.59.82-7.19s-4.01-3.59-4.01-7.19c0-3.59-.46-3.59-.46-7.19s-1.44-3.59-1.44-7.19c0-3.59.63-3.59.63-7.19,0-3.59,6.09-3.59,6.09-7.19,0-3.59-2.91-3.59-2.91-7.19,0-3.59,2.44-3.59,2.44-7.19,0-3.59-3.61-3.59-3.61-7.19s-2.34-3.59-2.34-7.19,6.17-3.59,6.17-7.18c0-3.59-1.86-3.59-1.86-7.18,0-3.59-3.88-3.59-3.88-7.19,0-3.59,5.24-3.59,5.24-7.19,0-3.59-2.86-3.59-2.86-7.18,0-3.59-1.66-3.59-1.66-7.19,0-3.59-1.42-3.59-1.42-7.19,0-3.59,4.84-3.59,4.84-7.18,0-3.59-2.56-3.59-2.56-7.19s-2.29-3.59-2.29-7.19c0-3.59,1.22-3.59,1.22-7.19s5.42-3.59,5.42-7.19c0-3.59-6.22-3.59-6.22-7.19,0-3.59,2.81-3.59,2.81-7.19,0-3.59-2.6-3.59-2.6-7.19q0-3.6,0-7.19c0-3.59,2.76-3.59,2.76-7.19,0-3.59.78-3.59.78-7.19s2.37-3.6,2.37-7.19c0-3.6-5.78-3.6-5.78-7.19,0-3.59-.94-3.59-.94-7.19s.8-3.6.8-7.19.33-3.6.33-7.19c0-3.6,1.28-3.6,1.28-7.19s-.31-3.6-.31-7.19c0-3.59,2-3.59,2-7.19,0-3.6-1.07-3.6-1.07-7.19S.24,34.18.24,30.58s.62-3.6.62-7.2c0-2.71,1.52-5.95,2.5-8.31,1.01-2.44,2.62-5.45,4.46-7.29,1.84-1.84,6.55.66,8.99-.36,2.36-.98,3.9-7.14,6.61-7.14,3.61,0,3.61,3.89,7.22,3.89s3.61.28,7.23.28,3.61.63,7.23.63,3.61,1.58,7.23,1.58,3.61-2.46,7.23-2.46,3.61-.81,7.23-.81,3.61.51,7.23.51,3.61-.89,7.22-.89,3.61,2.08,7.23,2.08,3.61-1.67,7.23-1.67,3.61-2.24,7.23-2.24,3.61.98,7.23.98,3.61.49,7.23.49,3.61,2.71,7.23,2.71,3.61-1.39,7.23-1.39,3.61,2.64,7.23,2.64,3.61-4.92,7.23-4.92,3.61-.42,7.23-.42,3.61,2.28,7.23,2.28,3.61-1.31,7.23-1.31,3.61,3.86,7.22,3.86,3.61-1.38,7.22-1.38,3.61-3.66,7.22-3.66,3.61,2.76,7.22,2.76,3.61-2.56,7.22-2.56,3.61,4.68,7.22,4.68,3.61-3.71,7.22-3.71,3.61,3.86,7.22,3.86,3.61-5.67,7.22-5.67,3.61,4.31,7.23,4.31,3.61-2.63,7.23-2.63,3.61,3.47,7.23,3.47,3.61.56,7.22.56,3.61-1.53,7.22-1.53,3.61.26,7.22.26,3.61-2.21,7.22-2.21,3.61-2.47,7.22-2.47,3.61,1.93,7.22,1.93,3.61-.33,7.22-.33,3.61.5,7.23.5,3.61-.14,7.23-.14,3.61-.5,7.23-.5,3.61-.28,7.22-.28,3.61,5.42,7.22,5.42,3.61-4.87,7.22-4.87,3.61,3.71,7.22,3.71,3.61.86,7.22.86,3.61-1.55,7.23-1.55,3.61-2.44,7.23-2.44,3.61,1.11,7.23,1.11,3.61,1.35,7.23,1.35,3.61-4.82,7.22-4.82,3.61,6.22,7.22,6.22,3.61-5.26,7.22-5.26,3.61.07,7.23.07,3.61,3.46,7.23,3.46,3.61,1.91,7.23,1.91,3.61-.03,7.23-.03,3.61-5.44,7.22-5.44,3.61-.54,7.22-.54,3.61,4.36,7.23,4.36,3.61-1.73,7.23-1.73,3.61,3.27,7.23,3.27,3.61-1.59,7.23-1.59,3.61,1.89,7.23,1.89,3.61.12,7.23.12,3.61-6.37,7.23-6.37,3.61.53,7.23.53,3.61-.96,7.23-.96,3.61,4.53,7.23,4.53,3.61-2.82,7.23-2.82,3.61-1.46,7.23-1.46,3.61,1.48,7.23,1.48,3.61-.48,7.23-.48,3.61-.71,7.23-.71,3.61,1.94,7.23,1.94,3.61,1.66,7.23,1.66,3.61.96,7.23.96,3.61-3.4,7.23-3.4,3.61-1.31,7.23-1.31,3.61,1.39,7.23,1.39,3.61,1.09,7.23,1.09,3.61-1.12,7.23-1.12,3.61-1.55,7.23-1.55,3.61,2.03,7.23,2.03,3.61-.9,7.23-.9,3.61,4.28,7.23,4.28,3.61.91,7.23.91,3.61-1.72,7.23-1.72,3.62-.73,7.23-.73,3.61-2.11,7.22-2.11,3.61-1.54,7.22-1.54,3.61,4.34,7.23,4.34,3.61,1.81,7.23,1.81,3.61-4.73,7.23-4.73,3.61,3.67,7.23,3.67,3.61-5.52,7.23-5.52,3.61,5.05,7.23,5.05,3.61-.87,7.23-.87,3.61.92,7.23.92,3.61-3.34,7.23-3.34,3.61,2.11,7.23,2.11,3.62,2.77,7.23,2.77,3.61-5.49,7.23-5.49,3.62,4.29,7.23,4.29,3.62-2.45,7.23-2.45,3.62-.68,7.23-.68,3.62,3.76,7.23,3.76,3.62-6.1,7.23-6.1,3.62,6.44,7.23,6.44,3.61-2.47,7.23-2.47,3.62,2.24,7.23,2.24,3.62.62,7.23.62,3.62-1.98,7.23-1.98,3.62-3.83,7.23-3.83,3.62,1.82,7.24,1.82,3.62.32,7.23.32,3.62-1.48,7.24-1.48,3.62,1.66,7.24,1.66c2.71,0,5.86-.77,8.21.21s6.31,1.62,8.15,3.47c1.84,1.84,3.62,5.22,4.63,7.66s-4.32,5.99-4.32,8.7c0,3.59,4.76,3.59,4.76,7.19s-3.51,3.59-3.51,7.19,2.44,3.59,2.44,7.18-3.02,3.59-3.02,7.18.67,3.59.67,7.18-.83,3.59-.83,7.18,3.55,3.59,3.55,7.19-1.02,3.59-1.02,7.19-1.44,3.59-1.44,7.18.15,3.59.15,7.18-1.15,3.59-1.15,7.18.93,3.59.93,7.19-1.09,3.59-1.09,7.19.53,3.59.53,7.19,2.87,3.59,2.87,7.18-3.52,3.59-3.52,7.19-.46,3.59-.46,7.19,4.47,3.59,4.47,7.19-1.47,3.59-1.47,7.19-2.24,3.59-2.24,7.19,1.63,3.59,1.63,7.19,2.83,3.59,2.83,7.19-1.78,3.59-1.78,7.19-2.43,3.59-2.43,7.19,4.04,3.59,4.04,7.19-4,3.59-4,7.19,1.84,3.59,1.84,7.19.25,3.59.25,7.19,2.68,3.59,2.68,7.19-.67,3.59-.67,7.19,1.35,3.59,1.35,7.19-5.69,3.59-5.69,7.19,4.4,3.59,4.4,7.19-4.99,3.59-4.99,7.19,6.45,3.59,6.45,7.19-1.05,3.59-1.05,7.18-4.84,3.59-4.84,7.18,4.72,3.59,4.72,7.19-3.89,3.59-3.89,7.19,1.58,3.59,1.58,7.18-1.97,3.59-1.97,7.19,2.04,3.59,2.04,7.19,1.48,3.59,1.48,7.18-4.57,3.59-4.57,7.19,6.69,3.59,6.69,7.19-.12,3.59-.12,7.19-6.16,3.59-6.16,7.19,4.5,3.59,4.5,7.19,0,3.59,0,7.19-3.11,3.59-3.11,7.19.24,3.6.24,7.19,3.82,3.59,3.82,7.19-1.72,3.59-1.72,7.19-.84,3.6-.84,7.19,1.37,3.6,1.37,7.19.27,3.59.27,7.19-3.94,3.6-3.94,7.19,4.16,3.6,4.16,7.19-.57,3.6-.57,7.19,0,3.6,0,7.19-2.37,3.59-2.37,7.19,2.15,3.6,2.15,7.19-.55,3.6-.55,7.2,1.62,3.6,1.62,7.2c0,2.71-3.17,5.1-4.15,7.45s-1.52,5.34-3.36,7.18-5.1,1.48-7.54,2.49c-2.36.98-4.38,1.93-7.09,1.93Z"/>
    </g>
  </g>
</svg>