<?xml version="1.0" encoding="UTF-8"?>
<svg id="_レイヤー_2" data-name="レイヤー 2" xmlns="http://www.w3.org/2000/svg" viewBox="0 0 55.09 55.09">
  <defs>
    <style>
      .cls-1 {
        fill: #fff;
      }
    </style>
  </defs>
  <g id="_メインビジュアル" data-name="メインビジュアル">
    <g id="_ハンバーガーメニュー" data-name="ハンバーガーメニュー">
      <path class="cls-1" d="M16.14.19c-2.93.14-4.93.61-6.68,1.29-1.81.71-3.35,1.65-4.87,3.18-1.53,1.53-2.47,3.07-3.17,4.88-.68,1.75-1.14,3.76-1.27,6.69C.02,19.18-.01,20.12,0,27.6c.01,7.48.05,8.42.19,11.36.14,2.93.61,4.93,1.29,6.68.71,1.81,1.65,3.34,3.19,4.87,1.53,1.53,3.07,2.47,4.88,3.17,1.75.68,3.76,1.14,6.69,1.27,2.94.13,3.88.16,11.35.14,7.48-.01,8.42-.05,11.36-.19,2.93-.14,4.93-.61,6.68-1.29,1.81-.71,3.35-1.65,4.87-3.19,1.53-1.53,2.47-3.07,3.17-4.88.68-1.75,1.14-3.76,1.27-6.68.13-2.94.16-3.88.14-11.36-.01-7.48-.05-8.42-.19-11.35-.14-2.93-.61-4.93-1.29-6.68-.71-1.81-1.65-3.34-3.18-4.87-1.53-1.53-3.07-2.47-4.88-3.17-1.75-.68-3.76-1.14-6.69-1.27C35.91.02,34.97-.01,27.49,0c-7.48.01-8.42.05-11.35.19M16.46,49.98c-2.69-.12-4.14-.56-5.12-.94-1.29-.5-2.21-1.09-3.17-2.05-.96-.96-1.56-1.88-2.07-3.16-.38-.97-.83-2.43-.96-5.11-.14-2.9-.17-3.77-.18-11.13-.01-7.35.01-8.22.14-11.13.12-2.68.56-4.14.94-5.11.5-1.29,1.09-2.21,2.05-3.17.96-.97,1.88-1.56,3.16-2.07.97-.38,2.43-.83,5.11-.96,2.9-.14,3.77-.17,11.13-.18,7.35-.01,8.23.01,11.13.14,2.68.12,4.14.56,5.11.94,1.29.5,2.21,1.09,3.17,2.05.97.96,1.56,1.88,2.07,3.16.38.97.83,2.43.96,5.11.14,2.9.17,3.78.18,11.13.01,7.35-.01,8.23-.14,11.13-.12,2.69-.56,4.14-.94,5.12-.5,1.29-1.09,2.2-2.06,3.17-.96.96-1.88,1.56-3.16,2.07-.97.38-2.43.83-5.11.96-2.9.14-3.77.17-11.13.18-7.35.01-8.22-.01-11.13-.14M38.91,12.82c0,1.82,1.49,3.3,3.31,3.3,1.82,0,3.3-1.49,3.3-3.31,0-1.82-1.49-3.3-3.31-3.3-1.82,0-3.3,1.49-3.3,3.31M13.4,27.57c.02,7.81,6.36,14.13,14.17,14.11,7.81-.02,14.13-6.36,14.12-14.17-.02-7.81-6.36-14.13-14.17-14.12-7.81.02-14.13,6.36-14.11,14.17M18.36,27.56c0-5.07,4.09-9.19,9.16-9.2,5.07,0,9.19,4.09,9.2,9.16,0,5.07-4.09,9.19-9.16,9.2-5.07,0-9.19-4.09-9.2-9.16"/>
    </g>
  </g>
</svg>