<?xml version="1.0" encoding="UTF-8"?>
<svg id="_レイヤー_2" data-name="レイヤー 2" xmlns="http://www.w3.org/2000/svg" viewBox="0 0 203.91 197.99">
  <defs>
    <style>
      .cls-1 {
        fill: #7db8c3;
      }
    </style>
  </defs>
  <g id="ABOUT">
    <g id="_コンセプト" data-name="コンセプト">
      <g id="_ロゴ_" data-name="ロゴ２">
        <path class="cls-1" d="M178.72.71c-5.48-1.97-15.27.17-30.8,6l-.77.29c-12.01,4.5-23.96,13.89-23.17,21.8.17,1.69.8,3.18,1.84,4.38.04.05.05.12.02.17-2.21,4.32-3.3,9.29-3.32,15.04v.32c-.01,8.57,3.49,16.83,6.88,24.81.97,2.28,1.97,4.63,2.85,6.93.83,2.15,1.61,4.34,2.23,6.58.04.16-.15.27-.26.15-1.98-1.93-4.4-3.62-7.23-5-7.03-3.43-15.8-4.56-24.68-3.18-8.89,1.38-16.9,5.11-22.56,10.5-5.94,5.66-8.64,12.49-7.6,19.22s5.68,12.42,13.06,16.02c5.08,2.47,11.06,3.75,17.34,3.75,2.42,0,4.88-.19,7.35-.57,8.89-1.38,16.9-5.11,22.56-10.5,4.69-4.47,7.44-9.71,7.85-15.01.03-.39.12-.74.16-1.13.34-3.78.43-5.97.02-9.2-.5-3.96-1.64-8.09-3.69-13.38-.92-2.37-1.93-4.77-2.91-7.08-3.35-7.89-6.51-15.33-6.5-22.9v-.31c.02-4.77.86-8.88,2.6-12.44.03-.07.11-.1.19-.08,1.62.51,3.51.77,5.63.77,4.27,0,9.46-1.03,15.19-3.08,6.42-2.29,13.7-7.01,19.96-12.94,2.94-2.79,8.89-9.94,9.98-15.1.66-3.14-.5-4.22-2.22-4.84ZM128.52,113.29c-4.83,4.6-11.75,7.79-19.49,8.99-7.74,1.2-15.3.25-21.29-2.67-5.64-2.75-9.16-6.92-9.91-11.74-.75-4.82,1.34-9.86,5.89-14.19,4.83-4.6,11.75-7.79,19.49-8.99,2.19-.34,4.36-.51,6.49-.51,5.4,0,10.51,1.08,14.8,3.17,5.64,2.75,9.16,6.92,9.91,11.74.75,4.82-1.34,9.86-5.89,14.19ZM176.15,5.46c-.63,4.43-13.71,18.87-26.78,23.54-6.48,2.32-12.41,3.23-16.25,2.6-.12-.02-.17-.16-.09-.25,2.55-3.03,6.13-5.36,10.45-7.82,5.92-3.37,8.71-4.46,12.68-6.34,2.26-1.07,5.85-2.82,6-3.77.22-1.4-4.61-.25-5.96.1-5.23,1.37-10.27,3.27-14.9,5.65-5.12,2.63-9.18,5.63-12.18,9.24-.09.11-.26.06-.28-.08h0c-.42-4.21,8.05-12.27,20.03-16.76l.77-.29c1-.38,2.03-.76,3.07-1.15,4.59-1.71,9.45-3.45,13.63-4.58,3.69-1,6-1.28,7.42-1.28s1.94.26,2.13.41c.31.24.32.41.26.79Z"/>
        <g>
          <g>
            <path class="cls-1" d="M.28,158.96l2.16-3.72c.48-.84,1.5-.84,2.04-.42.3.18,5.16,3.72,9.05,3.72,3.12,0,5.46-2.04,5.46-4.62,0-3.06-2.58-5.16-7.62-7.2-5.64-2.28-11.27-5.88-11.27-12.95,0-5.34,3.96-11.51,13.49-11.51,6.12,0,10.79,3.12,11.99,4.02.6.36.78,1.38.36,1.98l-2.28,3.42c-.48.72-1.38,1.2-2.1.72-.48-.3-5.04-3.3-8.34-3.3s-5.28,2.28-5.28,4.2c0,2.82,2.22,4.74,7.08,6.72,5.82,2.34,12.53,5.82,12.53,13.55,0,6.18-5.34,11.87-13.79,11.87-7.56,0-11.99-3.54-13.19-4.68-.54-.54-.84-.84-.3-1.8Z"/>
            <path class="cls-1" d="M43.46,140.25c6.78,0,12.29,5.76,12.29,12.53s-5.52,12.65-12.29,12.65-12.29-5.76-12.29-12.65,5.52-12.53,12.29-12.53ZM43.46,158.96c3.18,0,5.76-2.76,5.76-6.18s-2.58-6.06-5.76-6.06-5.76,2.7-5.76,6.06,2.52,6.18,5.76,6.18Z"/>
            <path class="cls-1" d="M59.89,141.99c0-.66.54-1.14,1.14-1.14h2.28c.54,0,.9.3,1.08.78l.84,2.34c.84-1.2,3.06-3.72,6.78-3.72,2.82,0,5.34.9,4.62,2.4l-2.22,3.9c-.3.54-.9.78-1.38.54-.18-.06-1.08-.36-1.74-.36-2.4,0-3.84,1.62-4.26,2.46v14.51c0,.84-.54,1.14-1.38,1.14h-4.62c-.6,0-1.14-.54-1.14-1.14v-21.71Z"/>
            <path class="cls-1" d="M88.19,149.66c2.4,0,4.38.66,4.38.66.06-3.06-.9-4.14-3.12-4.14s-5.34.48-6.72.9c-.84.24-1.26-.3-1.38-1.08l-.54-3.12c-.18-.9.3-1.32.84-1.5.48-.18,4.32-1.14,8.16-1.14,7.5,0,9.23,3.9,9.23,10.43v13.01c0,.6-.54,1.14-1.14,1.14h-2.16c-.42,0-.72-.18-1.02-.84l-.72-1.62c-1.38,1.26-3.6,3.06-7.32,3.06-4.8,0-8.1-3.12-8.1-8.22,0-4.26,3.48-7.56,9.59-7.56ZM88.31,160.34c1.92,0,3.78-1.62,4.14-2.34v-3.3s-1.62-.72-3.36-.72c-2.34,0-3.9,1.32-3.9,3.24,0,1.8,1.26,3.12,3.12,3.12Z"/>
            <path class="cls-1" d="M104.62,161.96l1.62-3.24c.24-.6.84-.72,1.38-.42,0,0,2.7,1.44,5.46,1.44,1.2,0,2.04-.48,2.04-1.5,0-1.08-.84-1.74-4.02-3-4.62-1.8-6.78-4.26-6.78-7.92s2.7-7.08,8.81-7.08c3.54,0,6.12,1.02,7.38,1.86.54.36.84,1.02.54,1.62l-1.5,3.06c-.3.54-.96.6-1.44.42,0,0-2.7-1.26-4.98-1.26-1.44,0-2.04.6-2.04,1.38,0,1.08,1.08,1.44,3.3,2.34,4.62,1.8,8.1,3.78,8.1,8.46,0,3.96-3.48,7.32-9.53,7.32-3.96,0-6.72-1.26-7.98-2.22-.36-.3-.6-.78-.36-1.26Z"/>
            <path class="cls-1" d="M138.2,140.25c6.18,0,11.21,4.68,11.21,11.15,0,.42-.06,1.2-.12,1.62-.06.6-.6,1.02-1.14,1.02h-15.35c.18,2.46,2.28,5.22,5.76,5.22,1.86,0,3.6-.72,4.68-1.5.6-.36,1.14-.48,1.56,0l2.46,2.82c.42.42.54,1.08-.06,1.56-1.98,1.86-5.04,3.3-8.94,3.3-7.2,0-12.29-5.7-12.29-12.59s5.1-12.59,12.23-12.59ZM142.39,149.84c-.18-2.22-2.1-4.08-4.38-4.08-2.4,0-4.38,1.8-4.68,4.08h9.06Z"/>
            <path class="cls-1" d="M164.88,140.25c6.18,0,11.21,4.68,11.21,11.15,0,.42-.06,1.2-.12,1.62-.06.6-.6,1.02-1.14,1.02h-15.35c.18,2.46,2.28,5.22,5.76,5.22,1.86,0,3.6-.72,4.68-1.5.6-.36,1.14-.48,1.56,0l2.46,2.82c.42.42.54,1.08-.06,1.56-1.98,1.86-5.04,3.3-8.94,3.3-7.2,0-12.29-5.7-12.29-12.59s5.1-12.59,12.23-12.59ZM169.08,149.84c-.18-2.22-2.1-4.08-4.38-4.08-2.4,0-4.38,1.8-4.68,4.08h9.06Z"/>
            <path class="cls-1" d="M191.2,140.25c2.4,0,4.26.66,5.34,1.08v-17.33c0-.6.54-1.14,1.14-1.14h5.1c.6,0,1.14.54,1.14,1.14v39.7c0,.6-.54,1.14-1.14,1.14h-2.34c-.54,0-.96-.48-1.14-1.14l-.6-1.86s-2.82,3.6-7.86,3.6c-6.54,0-11.51-5.7-11.51-12.59s4.74-12.59,11.87-12.59ZM191.74,158.96c3.18,0,4.62-2.46,5.04-3.9v-6.96s-1.68-1.38-4.68-1.38c-3.36,0-5.82,2.76-5.82,6.12s2.28,6.12,5.46,6.12Z"/>
          </g>
          <g>
            <path class="cls-1" d="M33.22,171.07c0-.27.22-.52.49-.52h6.44c5.24,0,9.53,4.26,9.53,9.48s-4.29,9.53-9.53,9.53h-6.44c-.27,0-.49-.24-.49-.52v-17.98ZM39.82,186.26c3.53,0,6.11-2.66,6.11-6.22s-2.58-6.19-6.11-6.19h-3.1v12.41h3.1Z"/>
            <path class="cls-1" d="M57.69,178.43c2.8,0,5.08,2.12,5.08,5.05,0,.19-.03.54-.05.73-.03.27-.27.46-.52.46h-6.95c.08,1.11,1.03,2.36,2.61,2.36.84,0,1.63-.33,2.12-.68.27-.16.52-.22.71,0l1.11,1.28c.19.19.24.49-.03.71-.9.84-2.28,1.49-4.05,1.49-3.26,0-5.57-2.58-5.57-5.7s2.31-5.7,5.54-5.7ZM59.59,182.78c-.08-1-.95-1.85-1.98-1.85-1.09,0-1.98.81-2.12,1.85h4.1Z"/>
            <path class="cls-1" d="M65.54,188.27l.73-1.47c.11-.27.38-.33.62-.19,0,0,1.22.65,2.47.65.54,0,.92-.22.92-.68,0-.49-.38-.79-1.82-1.36-2.09-.81-3.07-1.93-3.07-3.58s1.22-3.21,3.99-3.21c1.6,0,2.77.46,3.34.84.24.16.38.46.24.73l-.68,1.39c-.14.24-.43.27-.65.19,0,0-1.22-.57-2.25-.57-.65,0-.92.27-.92.62,0,.49.49.65,1.49,1.06,2.09.81,3.67,1.71,3.67,3.83,0,1.79-1.58,3.31-4.32,3.31-1.79,0-3.04-.57-3.61-1-.16-.14-.27-.35-.16-.57Z"/>
            <path class="cls-1" d="M76.86,172.98c0-1.03.81-1.87,1.85-1.87s1.9.84,1.9,1.87-.84,1.87-1.9,1.87-1.85-.84-1.85-1.87ZM77.11,179.22c0-.3.24-.52.52-.52h2.25c.27,0,.52.22.52.52v9.83c0,.27-.24.52-.52.52h-2.25c-.27,0-.52-.24-.52-.52v-9.83Z"/>
            <path class="cls-1" d="M85.64,185.71s-.81-.92-.81-2.55c0-2.53,2.04-4.73,4.73-4.73h4.94c.3,0,.52.22.52.52v.9c0,.19-.11.41-.3.46l-1.52.49s1.09.84,1.09,2.77c0,2.15-1.79,4.26-4.64,4.26-1.03,0-1.74-.22-2.17-.22-.38,0-1,.38-1,1.03,0,.57.49.92,1.09.92h3.48c2.47,0,4.48,1.41,4.48,3.8s-2.01,4.62-5.95,4.62-5.54-1.98-5.54-3.72c0-1.63,1.36-2.42,1.63-2.58v-.08c-.46-.14-2.04-.87-2.04-2.85,0-2.12,2.04-3.04,2.04-3.04ZM89.52,195.27c1.52,0,2.53-.68,2.53-1.71,0-.49-.38-1.33-1.98-1.33-.6,0-1.19.03-1.77.11-.33.11-1.17.49-1.17,1.33,0,.95.92,1.6,2.39,1.6ZM89.63,185.25c1.11,0,1.87-.81,1.87-1.96s-.76-1.96-1.87-1.96-1.9.81-1.9,1.96.81,1.96,1.9,1.96Z"/>
            <path class="cls-1" d="M98.37,179.22c0-.3.24-.52.52-.52h1.03c.24,0,.38.14.46.33l.38,1c.41-.43,1.74-1.6,3.83-1.6,3.45,0,4.83,2.58,4.83,5.4v5.21c0,.27-.24.52-.52.52h-2.23c-.3,0-.52-.24-.52-.52v-5.38c0-1.41-.73-2.31-2.04-2.31-1.41,0-2.28.98-2.55,1.71v5.98c0,.38-.16.52-.68.52h-2.01c-.27,0-.52-.24-.52-.52v-9.83Z"/>
            <path class="cls-1" d="M122.03,171.07c0-.27.22-.52.52-.52h2.5c.27,0,.52.24.52.52v15.24h6.93c.3,0,.52.24.52.52v2.23c0,.27-.22.52-.52.52h-9.94c-.3,0-.52-.24-.52-.52v-17.98Z"/>
            <path class="cls-1" d="M140.09,182.7c1.09,0,1.98.3,1.98.3.03-1.39-.41-1.87-1.41-1.87s-2.42.22-3.04.41c-.38.11-.57-.14-.62-.49l-.24-1.41c-.08-.41.14-.6.38-.68.22-.08,1.96-.52,3.69-.52,3.4,0,4.18,1.77,4.18,4.73v5.89c0,.27-.24.52-.52.52h-.98c-.19,0-.33-.08-.46-.38l-.33-.73c-.62.57-1.63,1.39-3.31,1.39-2.17,0-3.67-1.41-3.67-3.72,0-1.93,1.58-3.42,4.35-3.42ZM140.14,187.53c.87,0,1.71-.73,1.87-1.06v-1.49s-.73-.33-1.52-.33c-1.06,0-1.77.6-1.77,1.47,0,.81.57,1.41,1.41,1.41Z"/>
            <path class="cls-1" d="M149.22,171.07c0-.27.24-.52.52-.52h2.31c.27,0,.52.24.52.52v7.85c.49-.19,1.33-.49,2.42-.49,3.23,0,5.38,2.53,5.38,5.7s-2.25,5.7-5.21,5.7c-2.28,0-3.56-1.63-3.56-1.63l-.27.84c-.08.3-.27.52-.52.52h-1.06c-.27,0-.52-.24-.52-.52v-17.98ZM154.73,186.91c1.44,0,2.47-1.25,2.47-2.77s-1.11-2.77-2.63-2.77c-1.36,0-2.12.62-2.12.62v3.15c.19.65.84,1.77,2.28,1.77Z"/>
            <path class="cls-1" d="M168.61,178.43c3.07,0,5.57,2.61,5.57,5.68s-2.5,5.73-5.57,5.73-5.57-2.61-5.57-5.73,2.5-5.68,5.57-5.68ZM168.61,186.91c1.44,0,2.61-1.25,2.61-2.8s-1.17-2.74-2.61-2.74-2.61,1.22-2.61,2.74,1.14,2.8,2.61,2.8Z"/>
          </g>
        </g>
      </g>
    </g>
  </g>
</svg>