<?xml version="1.0" encoding="UTF-8"?>
<svg id="_レイヤー_2" data-name="レイヤー 2" xmlns="http://www.w3.org/2000/svg" viewBox="0 0 148.08 59.9">
  <defs>
    <style>
      .cls-1 {
        fill: #fff;
      }
    </style>
  </defs>
  <g id="_メインビジュアル" data-name="メインビジュアル">
    <g id="_ロゴ_" data-name="ロゴ１">
      <path class="cls-1" d="M49.56.33c-2.54-.91-7.09.08-14.3,2.79l-.36.13c-5.58,2.09-11.12,6.45-10.75,10.12.08.79.37,1.47.85,2.03.02.02.02.05,0,.08-1.03,2-1.53,4.31-1.54,6.98v.15c0,3.98,1.62,7.81,3.2,11.52.45,1.06.91,2.15,1.33,3.22.39,1,.75,2.02,1.04,3.05.02.07-.07.12-.12.07-.92-.9-2.04-1.68-3.36-2.32-3.26-1.59-7.33-2.12-11.46-1.48s-7.84,2.37-10.47,4.88C.87,44.18-.38,47.35.1,50.48c.48,3.12,2.64,5.77,6.06,7.44,2.36,1.15,5.13,1.74,8.05,1.74,1.12,0,2.26-.09,3.41-.27,4.12-.64,7.84-2.37,10.47-4.88,2.18-2.07,3.45-4.51,3.64-6.97.01-.18.06-.34.07-.52.16-1.76.2-2.77.01-4.27-.23-1.84-.76-3.75-1.71-6.21-.43-1.1-.9-2.21-1.35-3.29-1.55-3.66-3.02-7.12-3.02-10.63v-.15c0-2.22.4-4.12,1.21-5.77.02-.03.05-.05.09-.04.75.24,1.63.36,2.61.36,1.98,0,4.39-.48,7.05-1.43,2.98-1.07,6.36-3.25,9.27-6.01,1.37-1.29,4.13-4.61,4.63-7.01.31-1.46-.23-1.96-1.03-2.25ZM26.26,52.59c-2.24,2.13-5.45,3.62-9.05,4.17-3.59.56-7.1.12-9.88-1.24-2.62-1.28-4.25-3.21-4.6-5.45s.62-4.58,2.73-6.59c2.24-2.13,5.45-3.62,9.05-4.17,1.02-.16,2.02-.24,3.01-.24,2.51,0,4.88.5,6.87,1.47,2.62,1.28,4.25,3.21,4.6,5.45.35,2.24-.62,4.58-2.73,6.59ZM48.37,2.53c-.29,2.06-6.36,8.76-12.43,10.93-3.01,1.07-5.76,1.5-7.54,1.21-.05,0-.08-.08-.04-.12,1.18-1.41,2.85-2.49,4.85-3.63,2.75-1.56,4.04-2.07,5.89-2.94,1.05-.5,2.71-1.31,2.79-1.75.1-.65-2.14-.12-2.77.05-2.43.64-4.77,1.52-6.92,2.62-2.37,1.22-4.26,2.61-5.65,4.29-.04.05-.12.03-.13-.04h0c-.2-1.96,3.74-5.7,9.3-7.78l.36-.13c.47-.17.94-.35,1.43-.53,2.13-.79,4.39-1.6,6.33-2.13,1.71-.46,2.78-.59,3.44-.59s.9.12.99.19c.14.11.15.19.12.37Z"/>
      <g>
        <g>
          <path class="cls-1" d="M39.72,39.13l1.15-1.98c.26-.45.8-.45,1.08-.22.16.1,2.74,1.98,4.82,1.98,1.66,0,2.9-1.08,2.9-2.46,0-1.63-1.37-2.74-4.05-3.83-3-1.21-6-3.13-6-6.89,0-2.84,2.11-6.13,7.18-6.13,3.25,0,5.74,1.66,6.38,2.14.32.19.41.73.19,1.05l-1.21,1.82c-.26.38-.73.64-1.12.38-.26-.16-2.68-1.75-4.44-1.75s-2.81,1.21-2.81,2.23c0,1.5,1.18,2.52,3.77,3.57,3.09,1.24,6.67,3.09,6.67,7.21,0,3.29-2.84,6.32-7.34,6.32-4.02,0-6.38-1.88-7.02-2.49-.29-.29-.45-.45-.16-.96Z"/>
          <path class="cls-1" d="M62.69,29.17c3.61,0,6.54,3.06,6.54,6.67s-2.94,6.73-6.54,6.73-6.54-3.06-6.54-6.73,2.94-6.67,6.54-6.67ZM62.69,39.13c1.69,0,3.06-1.47,3.06-3.29s-1.37-3.22-3.06-3.22-3.06,1.44-3.06,3.22,1.34,3.29,3.06,3.29Z"/>
          <path class="cls-1" d="M71.44,30.1c0-.35.29-.61.61-.61h1.21c.29,0,.48.16.57.41l.45,1.24c.45-.64,1.63-1.98,3.61-1.98,1.5,0,2.84.48,2.46,1.28l-1.18,2.07c-.16.29-.48.41-.73.29-.1-.03-.57-.19-.93-.19-1.28,0-2.04.86-2.27,1.31v7.72c0,.45-.29.61-.73.61h-2.46c-.32,0-.61-.29-.61-.61v-11.55Z"/>
          <path class="cls-1" d="M86.5,34.18c1.28,0,2.33.35,2.33.35.03-1.63-.48-2.2-1.66-2.2s-2.84.26-3.57.48c-.45.13-.67-.16-.73-.57l-.29-1.66c-.1-.48.16-.7.45-.8.26-.1,2.3-.61,4.34-.61,3.99,0,4.91,2.07,4.91,5.55v6.92c0,.32-.29.61-.61.61h-1.15c-.22,0-.38-.1-.54-.45l-.38-.86c-.73.67-1.91,1.63-3.89,1.63-2.55,0-4.31-1.66-4.31-4.37,0-2.27,1.85-4.02,5.1-4.02ZM86.56,39.86c1.02,0,2.01-.86,2.2-1.24v-1.75s-.86-.38-1.79-.38c-1.24,0-2.07.7-2.07,1.72,0,.96.67,1.66,1.66,1.66Z"/>
          <path class="cls-1" d="M95.24,40.72l.86-1.72c.13-.32.45-.38.73-.22,0,0,1.44.77,2.9.77.64,0,1.08-.26,1.08-.8,0-.57-.45-.93-2.14-1.6-2.46-.96-3.6-2.27-3.6-4.21s1.44-3.77,4.69-3.77c1.88,0,3.25.54,3.92.99.29.19.45.54.29.86l-.8,1.63c-.16.29-.51.32-.77.22,0,0-1.44-.67-2.65-.67-.77,0-1.08.32-1.08.73,0,.57.57.77,1.75,1.24,2.46.96,4.31,2.01,4.31,4.5,0,2.11-1.85,3.89-5.07,3.89-2.11,0-3.57-.67-4.24-1.18-.19-.16-.32-.41-.19-.67Z"/>
          <path class="cls-1" d="M113.11,29.17c3.29,0,5.97,2.49,5.97,5.93,0,.22-.03.64-.06.86-.03.32-.32.54-.61.54h-8.17c.1,1.31,1.21,2.78,3.06,2.78.99,0,1.91-.38,2.49-.8.32-.19.61-.26.83,0l1.31,1.5c.22.22.29.57-.03.83-1.05.99-2.68,1.75-4.75,1.75-3.83,0-6.54-3.03-6.54-6.7s2.71-6.7,6.51-6.7ZM115.34,34.28c-.1-1.18-1.12-2.17-2.33-2.17-1.28,0-2.33.96-2.49,2.17h4.82Z"/>
          <path class="cls-1" d="M127.31,29.17c3.29,0,5.97,2.49,5.97,5.93,0,.22-.03.64-.06.86-.03.32-.32.54-.61.54h-8.17c.1,1.31,1.21,2.78,3.06,2.78.99,0,1.91-.38,2.49-.8.32-.19.61-.26.83,0l1.31,1.5c.22.22.29.57-.03.83-1.05.99-2.68,1.75-4.75,1.75-3.83,0-6.54-3.03-6.54-6.7s2.71-6.7,6.51-6.7ZM129.54,34.28c-.1-1.18-1.12-2.17-2.33-2.17-1.28,0-2.33.96-2.49,2.17h4.82Z"/>
          <path class="cls-1" d="M141.32,29.17c1.28,0,2.27.35,2.84.57v-9.22c0-.32.29-.61.61-.61h2.71c.32,0,.61.29.61.61v21.12c0,.32-.29.61-.61.61h-1.24c-.29,0-.51-.26-.61-.61l-.32-.99s-1.5,1.91-4.18,1.91c-3.48,0-6.13-3.03-6.13-6.7s2.52-6.7,6.32-6.7ZM141.61,39.13c1.69,0,2.46-1.31,2.68-2.07v-3.7s-.89-.73-2.49-.73c-1.79,0-3.09,1.47-3.09,3.25s1.21,3.25,2.9,3.25Z"/>
        </g>
        <g>
          <path class="cls-1" d="M57.24,45.58c0-.14.12-.27.26-.27h3.42c2.79,0,5.07,2.27,5.07,5.04s-2.28,5.07-5.07,5.07h-3.42c-.14,0-.26-.13-.26-.27v-9.57ZM60.76,53.65c1.88,0,3.25-1.42,3.25-3.31s-1.37-3.29-3.25-3.29h-1.65v6.6h1.65Z"/>
          <path class="cls-1" d="M70.27,49.49c1.49,0,2.7,1.13,2.7,2.69,0,.1-.01.29-.03.39-.01.14-.14.25-.27.25h-3.7c.04.59.55,1.26,1.39,1.26.45,0,.87-.17,1.13-.36.14-.09.27-.12.38,0l.59.68c.1.1.13.26-.01.38-.48.45-1.21.79-2.15.79-1.73,0-2.96-1.37-2.96-3.03s1.23-3.03,2.95-3.03ZM71.28,51.8c-.04-.53-.51-.98-1.06-.98-.58,0-1.05.43-1.13.98h2.18Z"/>
          <path class="cls-1" d="M74.44,54.72l.39-.78c.06-.14.2-.17.33-.1,0,0,.65.35,1.31.35.29,0,.49-.12.49-.36,0-.26-.2-.42-.97-.72-1.11-.43-1.63-1.03-1.63-1.91s.65-1.71,2.12-1.71c.85,0,1.47.25,1.78.45.13.09.2.25.13.39l-.36.74c-.07.13-.23.14-.35.1,0,0-.65-.3-1.2-.3-.35,0-.49.14-.49.33,0,.26.26.35.79.56,1.11.43,1.95.91,1.95,2.04,0,.95-.84,1.76-2.3,1.76-.95,0-1.62-.3-1.92-.53-.09-.07-.14-.19-.09-.3Z"/>
          <path class="cls-1" d="M80.47,46.59c0-.55.43-1,.98-1s1.01.45,1.01,1-.45,1-1.01,1-.98-.45-.98-1ZM80.6,49.91c0-.16.13-.27.27-.27h1.2c.14,0,.27.12.27.27v5.23c0,.14-.13.27-.27.27h-1.2c-.14,0-.27-.13-.27-.27v-5.23Z"/>
          <path class="cls-1" d="M85.14,53.36s-.43-.49-.43-1.36c0-1.34,1.08-2.51,2.51-2.51h2.63c.16,0,.27.12.27.27v.48c0,.1-.06.22-.16.25l-.81.26s.58.45.58,1.47c0,1.14-.95,2.27-2.47,2.27-.55,0-.92-.12-1.16-.12-.2,0-.53.2-.53.55,0,.3.26.49.58.49h1.85c1.31,0,2.38.75,2.38,2.02s-1.07,2.46-3.17,2.46-2.95-1.05-2.95-1.98c0-.87.72-1.29.87-1.37v-.04c-.25-.07-1.08-.46-1.08-1.52,0-1.13,1.08-1.62,1.08-1.62ZM87.21,58.45c.81,0,1.34-.36,1.34-.91,0-.26-.2-.71-1.05-.71-.32,0-.64.01-.94.06-.17.06-.62.26-.62.71,0,.51.49.85,1.27.85ZM87.26,53.12c.59,0,1-.43,1-1.04s-.4-1.04-1-1.04-1.01.43-1.01,1.04.43,1.04,1.01,1.04Z"/>
          <path class="cls-1" d="M91.92,49.91c0-.16.13-.27.27-.27h.55c.13,0,.2.07.25.17l.2.53c.22-.23.92-.85,2.04-.85,1.83,0,2.57,1.37,2.57,2.88v2.77c0,.14-.13.27-.27.27h-1.18c-.16,0-.27-.13-.27-.27v-2.86c0-.75-.39-1.23-1.08-1.23-.75,0-1.21.52-1.36.91v3.18c0,.2-.09.27-.36.27h-1.07c-.14,0-.27-.13-.27-.27v-5.23Z"/>
          <path class="cls-1" d="M104.51,45.58c0-.14.12-.27.27-.27h1.33c.14,0,.27.13.27.27v8.11h3.68c.16,0,.27.13.27.27v1.19c0,.14-.12.27-.27.27h-5.29c-.16,0-.27-.13-.27-.27v-9.57Z"/>
          <path class="cls-1" d="M114.12,51.76c.58,0,1.05.16,1.05.16.01-.74-.22-1-.75-1s-1.29.12-1.62.22c-.2.06-.3-.07-.33-.26l-.13-.75c-.04-.22.07-.32.2-.36.12-.04,1.04-.27,1.97-.27,1.81,0,2.23.94,2.23,2.51v3.14c0,.14-.13.27-.27.27h-.52c-.1,0-.17-.04-.25-.2l-.17-.39c-.33.3-.87.74-1.76.74-1.16,0-1.95-.75-1.95-1.98,0-1.03.84-1.82,2.31-1.82ZM114.15,54.33c.46,0,.91-.39,1-.56v-.79s-.39-.17-.81-.17c-.56,0-.94.32-.94.78,0,.43.3.75.75.75Z"/>
          <path class="cls-1" d="M118.98,45.58c0-.14.13-.27.27-.27h1.23c.14,0,.27.13.27.27v4.18c.26-.1.71-.26,1.29-.26,1.72,0,2.86,1.34,2.86,3.03s-1.2,3.03-2.77,3.03c-1.21,0-1.89-.87-1.89-.87l-.14.45c-.04.16-.14.27-.27.27h-.56c-.14,0-.27-.13-.27-.27v-9.57ZM121.91,54c.77,0,1.31-.66,1.31-1.47s-.59-1.47-1.4-1.47c-.72,0-1.13.33-1.13.33v1.68c.1.35.45.94,1.21.94Z"/>
          <path class="cls-1" d="M129.3,49.49c1.63,0,2.96,1.39,2.96,3.02s-1.33,3.05-2.96,3.05-2.96-1.39-2.96-3.05,1.33-3.02,2.96-3.02ZM129.3,54c.77,0,1.39-.66,1.39-1.49s-.62-1.46-1.39-1.46-1.39.65-1.39,1.46.61,1.49,1.39,1.49Z"/>
        </g>
      </g>
    </g>
  </g>
</svg>