<?xml version="1.0" encoding="UTF-8"?>
<svg id="_レイヤー_2" data-name="レイヤー 2" xmlns="http://www.w3.org/2000/svg" viewBox="0 0 120.36 119.8">
  <g id="_メインビジュアル" data-name="メインビジュアル">
    <g>
      <path d="M71.29,3.51c-.14-.34-.36-.61-.66-.81-.3-.2-.62-.32-.97-.38-.26-.04-.52-.05-.78-.03-.26.02-.5.08-.72.18s-.41.24-.56.43c-.15.19-.25.43-.3.72-.04.22-.03.42,0,.6.04.18.13.35.26.52.13.16.32.33.57.49.25.16.56.34.92.52.36.18.7.37,1.04.57.33.2.62.42.85.68.24.26.41.56.52.9s.13.76.05,1.23c-.08.49-.25.9-.5,1.22-.25.33-.56.58-.91.77-.36.18-.75.3-1.18.35-.43.05-.87.04-1.31-.04-.29-.05-.57-.12-.84-.22-.28-.1-.54-.22-.78-.37-.25-.15-.47-.33-.67-.53-.2-.21-.37-.45-.49-.73l1.13-.65c.15.39.4.71.75.96s.73.4,1.16.47c.25.04.51.04.77.01.27-.03.51-.1.74-.21.23-.11.42-.26.58-.45.16-.19.27-.42.31-.7.05-.3.04-.56-.03-.76-.07-.21-.2-.39-.39-.57s-.44-.34-.74-.5c-.3-.16-.66-.35-1.07-.57-.33-.17-.63-.35-.91-.54-.27-.19-.5-.41-.68-.65-.18-.24-.31-.52-.39-.83-.08-.31-.08-.67-.02-1.07.08-.47.23-.86.48-1.18s.54-.57.89-.76c.35-.18.73-.3,1.15-.36.42-.06.84-.05,1.27.02.55.09,1.04.26,1.47.5.43.24.79.61,1.08,1.09l-1.09.67Z"/>
      <path d="M79.19,9.11c-.13-.34-.31-.61-.53-.81-.22-.2-.48-.36-.79-.46-.35-.11-.67-.15-.98-.12-.31.03-.58.13-.82.28-.24.16-.45.36-.63.61s-.32.54-.43.85-.15.64-.14.95c.01.31.07.61.18.88.11.27.28.51.5.71.22.2.49.36.81.46.68.22,1.29.14,1.84-.25l.53.98c-.41.25-.85.38-1.31.41-.46.03-.92-.03-1.37-.18-.48-.16-.89-.38-1.24-.67-.35-.29-.61-.63-.8-1.01-.18-.38-.29-.8-.31-1.25-.02-.45.04-.91.2-1.39.15-.47.37-.88.66-1.23s.62-.62,1-.82c.38-.2.79-.32,1.24-.35.45-.03.91.03,1.39.18.46.15.87.37,1.23.67.36.29.64.66.84,1.1l-1.06.46Z"/>
      <path d="M82.18,10.28c.13-.27.24-.53.34-.77.1-.24.19-.46.28-.66l.94.44c-.08.16-.15.32-.22.49-.07.16-.14.33-.22.5h.03c.14-.1.3-.19.48-.27.19-.08.39-.13.61-.15s.45-.02.69.02c.24.04.48.11.73.23.07.03.13.07.2.11.06.04.12.09.18.15l-.54.97c-.15-.13-.31-.24-.5-.33-.61-.29-1.14-.3-1.6-.04-.46.26-.85.73-1.18,1.42l-1.37,2.88-.99-.47,2.15-4.51Z"/>
      <path d="M86.38,14.22c.28-.43.62-.77,1-1.02.38-.25.78-.42,1.21-.5s.86-.08,1.31.02c.45.1.89.29,1.31.56.42.28.76.61,1.03.98.26.38.44.78.53,1.2.09.42.09.86,0,1.31s-.27.89-.55,1.31-.62.77-1,1.02c-.38.25-.78.42-1.21.5s-.86.08-1.31-.02c-.45-.1-.89-.29-1.31-.56s-.76-.61-1.03-.98c-.27-.38-.44-.78-.53-1.2-.09-.42-.09-.86,0-1.31s.27-.89.55-1.31ZM87.36,14.87c-.19.29-.32.58-.4.89-.07.3-.08.6-.03.9.05.3.16.58.33.84.17.26.4.49.69.69.3.2.6.32.9.37.31.05.61.04.9-.03s.56-.2.82-.38.47-.42.66-.71c.19-.29.32-.58.4-.89.07-.3.08-.6.03-.9-.05-.3-.16-.58-.33-.84-.17-.26-.4-.49-.69-.69-.3-.2-.6-.32-.9-.37-.31-.05-.61-.04-.9.03-.29.07-.56.2-.82.38-.25.19-.47.42-.66.71Z"/>
      <path d="M99.02,14.34l.83.71-6.91,8.02-.83-.71,6.91-8.02Z"/>
      <path d="M102.57,17.59l.77.78-7.52,7.45-.77-.78,7.52-7.44Z"/>
      <path d="M112.44,35.57c.19-.32.27-.66.25-1.02s-.12-.69-.28-1.01c-.12-.23-.27-.44-.44-.64s-.37-.35-.57-.47c-.21-.12-.44-.18-.68-.19-.25,0-.5.05-.75.19-.2.1-.36.23-.48.37-.12.14-.21.32-.26.52-.05.21-.07.46-.05.75.02.3.06.65.14,1.05.07.4.12.78.17,1.17s.03.75-.03,1.09c-.06.34-.2.66-.41.96-.21.29-.53.55-.96.78-.44.23-.86.34-1.28.33-.41,0-.8-.1-1.16-.27-.36-.18-.69-.42-.99-.74-.3-.32-.55-.68-.76-1.07-.13-.26-.24-.53-.33-.81-.09-.28-.15-.56-.17-.85s-.02-.57.03-.86c.05-.29.14-.56.29-.83l1.2.51c-.22.36-.33.75-.32,1.18.01.43.12.83.31,1.21.12.22.27.43.45.62.18.19.39.35.61.46.22.11.46.18.71.2.25.02.5-.04.75-.17.27-.14.47-.3.59-.48.12-.18.2-.4.22-.65.03-.26.01-.55-.04-.9-.05-.34-.11-.74-.18-1.2-.06-.37-.1-.72-.11-1.05,0-.33.03-.64.11-.94s.23-.56.43-.81.49-.47.85-.66c.42-.22.83-.33,1.23-.33.4,0,.78.09,1.14.26.36.17.68.41.98.71.29.3.54.64.74,1.03.26.5.42.99.48,1.48.06.49-.02.99-.23,1.52l-1.19-.47Z"/>
      <path d="M112.68,45.24c.19-.31.3-.61.34-.91.03-.3,0-.6-.11-.91-.12-.34-.28-.63-.49-.85-.21-.23-.45-.39-.72-.49-.27-.1-.56-.15-.87-.14-.31,0-.62.06-.94.17s-.6.26-.84.45c-.24.2-.44.42-.59.67-.15.25-.24.53-.28.82-.03.3,0,.6.11.92.23.68.66,1.12,1.3,1.32l-.47,1.02c-.45-.18-.82-.45-1.11-.81-.3-.35-.52-.76-.67-1.21-.16-.48-.23-.94-.2-1.39s.14-.87.33-1.24c.2-.38.47-.71.82-1,.35-.29.76-.51,1.23-.67.47-.16.93-.23,1.38-.21s.87.12,1.26.31.73.45,1.03.78c.3.34.52.75.69,1.22.16.46.22.92.2,1.39-.02.46-.15.91-.38,1.33l-1.01-.58Z"/>
      <path d="M113.53,48.34c.29-.06.57-.12.82-.19.25-.07.48-.13.69-.17l.2,1.02c-.17.03-.35.07-.52.12-.17.04-.35.08-.53.12v.03c.18.04.35.11.52.22.17.1.33.24.49.4s.28.35.4.56c.11.22.2.46.25.72.01.07.02.15.03.22,0,.08,0,.15-.01.23l-1.1.15c.02-.19,0-.39-.03-.59-.13-.66-.44-1.09-.93-1.31-.49-.21-1.1-.24-1.84-.1l-3.13.63-.21-1.07,4.9-.98Z"/>
      <path d="M112.88,54.06c.51-.03.98.03,1.41.19.43.15.8.38,1.12.67.32.29.58.65.77,1.06.19.42.3.88.33,1.38s-.03.97-.17,1.41c-.14.44-.36.82-.64,1.14s-.63.59-1.04.79c-.41.2-.87.32-1.38.34-.51.03-.98-.03-1.41-.19-.43-.15-.8-.38-1.12-.67-.32-.29-.58-.65-.77-1.06s-.3-.88-.33-1.38c-.03-.5.03-.97.17-1.41.14-.44.36-.82.64-1.14s.63-.59,1.04-.79c.41-.2.87-.32,1.38-.34ZM112.95,55.23c-.35.02-.66.09-.95.21-.29.12-.54.29-.74.51-.21.22-.37.47-.48.76-.11.29-.15.61-.13.97.02.35.1.67.24.95.14.28.33.51.56.7s.5.33.79.43c.3.09.62.13.97.11s.66-.09.95-.21c.29-.12.54-.29.74-.51.21-.22.37-.47.48-.76.11-.29.15-.61.13-.97-.02-.35-.1-.67-.24-.95s-.33-.51-.56-.7c-.23-.19-.5-.33-.79-.43-.3-.09-.62-.13-.97-.11Z"/>
      <path d="M120.36,64.26l-.08,1.09-10.56-.73.08-1.09,10.56.73Z"/>
      <path d="M119.89,69.05l-.16,1.08-10.47-1.56.16-1.08,10.47,1.56Z"/>
      <path d="M111.38,87.73c.37-.04.69-.17.97-.4.27-.23.49-.51.64-.83.11-.24.2-.48.25-.74s.06-.5.03-.74c-.03-.24-.12-.46-.26-.66-.14-.2-.34-.37-.6-.49-.2-.1-.4-.15-.58-.16s-.38.02-.57.1c-.2.08-.41.22-.63.41s-.48.44-.76.74c-.28.29-.55.57-.84.83-.28.26-.58.47-.89.63-.31.15-.65.24-1.01.24-.36,0-.76-.1-1.2-.31-.45-.22-.79-.49-1.03-.83s-.4-.7-.47-1.09c-.07-.39-.07-.8,0-1.23.08-.43.21-.84.41-1.25.13-.26.28-.51.45-.75.17-.24.36-.45.58-.65.21-.19.45-.36.7-.49.26-.14.54-.22.84-.26l.3,1.27c-.42.03-.8.18-1.13.45-.33.26-.6.59-.78.97-.11.23-.19.47-.23.74-.04.26-.05.52,0,.77.04.25.13.48.27.69.14.21.33.38.58.5.28.13.52.2.74.19.22,0,.44-.08.65-.21.22-.13.45-.32.69-.57s.53-.53.85-.86c.25-.27.51-.51.77-.71s.53-.36.82-.47.59-.15.91-.14c.32.01.66.11,1.03.29.43.21.76.47,1,.79.24.32.4.68.47,1.07.08.39.08.79.02,1.21-.07.41-.19.82-.38,1.21-.24.5-.54.93-.9,1.27-.36.34-.81.58-1.35.72l-.34-1.24Z"/>
      <path d="M103.77,93.69c.36-.03.67-.12.93-.28.26-.15.48-.36.66-.63.21-.3.34-.6.39-.9.06-.3.04-.59-.04-.87-.08-.28-.22-.54-.4-.78-.19-.24-.42-.46-.7-.65-.28-.19-.57-.33-.87-.4s-.6-.1-.89-.07c-.29.03-.57.12-.83.27-.26.15-.48.36-.67.64-.41.59-.5,1.2-.28,1.83l-1.1.23c-.12-.47-.13-.93-.02-1.38.11-.45.29-.87.56-1.26.29-.41.62-.75,1-1s.78-.41,1.2-.48c.42-.07.85-.05,1.29.06.44.1.86.3,1.28.59.41.28.74.61.99.98.25.37.42.77.5,1.19.08.42.08.85-.02,1.29-.09.44-.28.87-.57,1.28-.28.4-.61.73-.99.99-.39.26-.82.43-1.29.49l-.14-1.15Z"/>
      <path d="M101.8,96.23c.22.2.44.38.64.54.21.16.39.31.55.46l-.69.77c-.13-.12-.27-.23-.41-.34-.14-.11-.28-.23-.42-.35l-.02.02c.07.16.11.34.13.54.02.2.01.41-.03.63-.04.22-.11.44-.21.66s-.25.43-.43.63c-.05.06-.1.11-.16.16-.06.05-.12.09-.19.13l-.78-.79c.17-.1.32-.23.46-.38.45-.5.61-1.01.49-1.52-.12-.52-.46-1.03-1.03-1.53l-2.38-2.13.73-.81,3.72,3.34Z"/>
      <path d="M96.83,99.14c.33.39.56.81.7,1.24.13.44.18.87.14,1.3-.04.43-.17.85-.39,1.25-.22.4-.52.77-.91,1.09-.39.32-.8.56-1.23.71-.44.15-.87.2-1.3.17-.43-.03-.85-.15-1.26-.36-.41-.21-.77-.51-1.1-.9-.33-.39-.56-.81-.7-1.24-.13-.44-.18-.87-.14-1.3.04-.43.17-.85.39-1.25.22-.41.52-.77.91-1.09.39-.32.8-.56,1.23-.71.44-.15.87-.2,1.3-.17.43.03.85.15,1.26.36.41.21.77.51,1.1.9ZM95.93,99.9c-.22-.26-.47-.47-.74-.63-.27-.16-.56-.25-.85-.29-.3-.04-.6-.01-.9.08-.3.09-.58.24-.86.47-.27.23-.48.48-.61.76-.14.28-.21.57-.23.87-.02.3.03.6.14.89s.27.57.49.84c.22.26.47.47.74.63.27.16.56.25.85.29.3.04.6.01.9-.08s.58-.24.86-.47c.27-.23.48-.48.61-.76.14-.28.21-.57.23-.87.02-.3-.03-.6-.14-.89-.11-.29-.27-.57-.49-.84Z"/>
      <path d="M93.12,111.25l-.92.59-5.73-8.9.92-.59,5.73,8.9Z"/>
      <path d="M89.01,113.73l-.96.52-5.01-9.32.96-.52,5.01,9.32Z"/>
      <path d="M68.93,118.09c.25.27.55.45.9.53.35.08.7.09,1.04.02.26-.05.5-.13.74-.24.24-.11.44-.25.61-.42.17-.17.3-.37.38-.6.08-.23.09-.49.04-.78-.04-.22-.11-.41-.22-.56-.1-.16-.24-.29-.43-.4s-.42-.2-.71-.26c-.29-.07-.64-.12-1.04-.17-.4-.05-.79-.1-1.17-.17-.38-.07-.72-.18-1.04-.34-.31-.16-.58-.38-.8-.67s-.38-.67-.47-1.14c-.09-.49-.08-.93.05-1.32.12-.39.32-.74.59-1.03.27-.29.6-.54.99-.73.39-.19.81-.33,1.25-.42.28-.05.57-.08.87-.09.29,0,.58.02.86.08.28.05.55.15.81.27s.5.3.71.51l-.83,1c-.28-.32-.62-.53-1.04-.64-.41-.11-.83-.13-1.25-.04-.25.05-.49.13-.73.25-.24.12-.44.27-.62.45s-.31.39-.39.62-.11.49-.05.77c.06.3.16.54.29.71.14.17.32.3.56.4s.53.17.87.22c.34.05.74.1,1.2.17.37.04.71.11,1.04.19.32.09.61.21.86.38.26.16.47.38.65.64.18.26.31.6.39,1,.09.47.08.89-.04,1.28-.12.38-.31.72-.57,1.02s-.59.54-.96.73c-.37.19-.77.33-1.2.42-.55.11-1.07.12-1.55.04-.49-.08-.95-.3-1.39-.65l.79-1.01Z"/>
      <path d="M59.62,115.55c.24.27.5.46.78.58.28.12.58.17.9.16.36-.01.68-.09.96-.22.27-.14.5-.32.67-.55.17-.23.3-.49.38-.79.08-.3.12-.61.1-.95-.01-.34-.08-.65-.2-.94s-.28-.54-.48-.76c-.2-.22-.44-.38-.71-.5-.27-.12-.58-.17-.92-.16-.72.03-1.26.32-1.64.87l-.84-.74c.3-.38.67-.66,1.09-.84.42-.18.87-.28,1.35-.3.5-.02.97.05,1.39.2.43.15.79.38,1.1.67s.55.65.73,1.07c.18.41.28.87.3,1.38.02.49-.05.95-.19,1.38-.15.43-.36.8-.65,1.12-.29.32-.63.57-1.04.76-.41.19-.87.29-1.37.31-.48.02-.95-.05-1.39-.2-.44-.15-.83-.4-1.17-.74l.84-.8Z"/>
      <path d="M56.41,115.5c-.03.3-.04.58-.05.84,0,.26-.02.5-.04.71l-1.03-.09c.02-.18.03-.35.03-.53,0-.18.02-.36.03-.55h-.03c-.09.15-.21.29-.35.43-.15.14-.32.26-.52.35-.2.1-.41.17-.65.22-.24.05-.49.06-.76.04-.07,0-.15-.02-.22-.03-.07-.02-.15-.04-.22-.08l.17-1.1c.18.07.37.12.58.14.67.06,1.17-.11,1.51-.52.34-.41.54-.99.61-1.74l.28-3.18,1.09.1-.44,4.98Z"/>
      <path d="M51.11,113.26c-.12.5-.31.93-.58,1.3-.27.37-.59.67-.96.89s-.78.37-1.24.44c-.46.07-.93.04-1.42-.07s-.93-.3-1.31-.56c-.38-.26-.68-.58-.92-.94s-.38-.77-.46-1.22c-.08-.45-.06-.92.06-1.42.12-.5.31-.93.58-1.3.27-.37.59-.67.96-.89s.78-.37,1.24-.44c.46-.07.93-.04,1.42.07.49.11.93.3,1.31.56.38.26.69.57.92.94.23.37.38.77.46,1.22.08.45.06.92-.06,1.42ZM49.96,112.99c.08-.34.1-.66.06-.97-.04-.31-.13-.6-.28-.86-.15-.26-.35-.48-.6-.67s-.55-.32-.89-.4c-.35-.08-.67-.09-.98-.03-.31.06-.58.17-.83.34-.25.17-.46.38-.63.64-.17.26-.3.56-.38.9-.08.34-.1.66-.06.97.04.31.13.6.28.86.15.26.35.48.6.67.25.19.55.32.89.4s.67.09.98.03c.31-.06.58-.17.83-.34s.46-.38.63-.64.3-.56.38-.9Z"/>
      <path d="M39.18,117.54l-1.02-.38,3.71-9.91,1.02.38-3.71,9.91Z"/>
      <path d="M34.73,115.72l-.99-.46,4.49-9.59.99.46-4.48,9.59Z"/>
      <path d="M19.24,102.24c-.07.37-.03.71.11,1.04s.35.61.61.85c.19.18.41.32.64.45.23.12.46.2.7.24.24.04.47.02.71-.06.23-.08.45-.22.64-.44.15-.17.26-.34.32-.51.06-.18.09-.37.06-.58-.02-.21-.09-.45-.21-.72-.12-.27-.28-.58-.49-.94-.2-.35-.39-.69-.56-1.04-.17-.35-.29-.69-.35-1.03-.06-.34-.04-.69.06-1.04.1-.35.31-.7.63-1.06.33-.37.69-.62,1.08-.75.39-.14.78-.19,1.18-.14s.79.16,1.18.36.75.45,1.08.75c.21.19.41.41.59.64.18.23.33.48.46.74s.22.53.27.81c.06.28.06.58.02.88l-1.3-.07c.09-.41.05-.82-.11-1.21s-.4-.74-.71-1.03c-.19-.17-.4-.31-.64-.43-.24-.12-.48-.19-.73-.22-.25-.03-.49-.01-.74.06-.24.07-.46.21-.64.42-.21.23-.34.45-.39.66-.05.21-.05.44.02.69s.18.52.35.83c.17.3.36.66.58,1.06.19.32.34.64.47.94.12.31.2.61.22.92s-.02.61-.13.91c-.1.3-.3.6-.57.91-.32.35-.67.6-1.05.73-.38.14-.76.19-1.16.15-.4-.04-.78-.15-1.16-.33-.38-.18-.73-.42-1.05-.71-.41-.38-.73-.78-.96-1.22-.23-.44-.33-.94-.31-1.5l1.28.03Z"/>
      <path d="M15.69,93.27c-.07.36-.07.68,0,.97.07.29.21.56.42.82.23.28.48.49.75.63.27.14.56.21.84.21.29,0,.58-.05.86-.17.29-.11.56-.27.82-.48.26-.21.47-.45.63-.72.16-.27.27-.55.32-.84.05-.29.05-.58-.03-.87s-.21-.57-.42-.83c-.45-.56-1.01-.82-1.68-.79l.09-1.12c.48.02.92.14,1.32.37.4.23.75.53,1.05.9.32.39.54.8.67,1.24s.17.86.12,1.28c-.06.42-.19.83-.42,1.22s-.53.74-.92,1.06c-.38.31-.79.53-1.22.67-.43.14-.86.19-1.28.15-.43-.04-.84-.17-1.23-.38s-.75-.52-1.07-.91c-.3-.38-.53-.79-.67-1.23-.14-.44-.18-.9-.11-1.38l1.14.19Z"/>
      <path d="M13.81,90.66c-.25.16-.49.31-.7.47-.21.15-.41.29-.59.4l-.54-.88c.15-.09.3-.19.45-.29.15-.1.3-.2.46-.3v-.02c-.19.02-.38.01-.57-.03s-.4-.1-.59-.2c-.2-.1-.39-.23-.57-.39-.18-.16-.34-.36-.49-.59-.04-.06-.07-.13-.11-.2-.03-.07-.05-.14-.07-.22l.98-.52c.05.19.13.37.24.54.35.57.79.87,1.32.9.53.03,1.11-.15,1.76-.55l2.72-1.68.57.93-4.25,2.63Z"/>
      <path d="M12.42,85.06c-.47.21-.93.31-1.39.32-.46,0-.88-.07-1.29-.23-.4-.16-.76-.41-1.09-.73s-.59-.72-.79-1.18c-.2-.46-.31-.92-.33-1.38-.02-.46.05-.89.21-1.3.16-.4.39-.77.7-1.1.31-.33.71-.6,1.18-.8.47-.21.93-.31,1.39-.32.46,0,.88.07,1.29.23.4.16.76.41,1.09.73.33.33.59.72.79,1.18.2.46.31.92.33,1.38.02.46-.05.89-.21,1.3-.16.4-.39.77-.7,1.1-.31.33-.71.6-1.18.8ZM11.95,83.98c.32-.14.59-.31.81-.53.23-.22.4-.46.52-.74.12-.28.18-.57.18-.88,0-.31-.07-.63-.21-.95-.14-.32-.33-.59-.56-.8-.23-.21-.48-.37-.77-.47s-.58-.14-.89-.12c-.31.02-.63.1-.94.24-.32.14-.59.31-.81.53-.23.22-.4.46-.52.74s-.18.57-.18.88c0,.31.07.63.21.95s.33.59.56.8c.23.21.49.37.77.47.28.1.58.14.89.12s.63-.1.94-.24Z"/>
      <path d="M1.87,78.1l-.31-1.05,10.16-2.96.31,1.05-10.16,2.96Z"/>
      <path d="M.66,73.42l-.22-1.07,10.37-2.14.22,1.07-10.37,2.14Z"/>
      <path d="M2.19,52.96c-.33.16-.59.4-.76.71-.17.31-.28.64-.31,1-.02.26-.02.52.02.78.04.26.12.49.23.7.11.21.27.39.47.53.2.14.45.23.74.25.22.02.42,0,.6-.05s.34-.15.5-.3c.15-.14.3-.35.45-.6.15-.26.3-.58.46-.95.16-.37.32-.73.5-1.07.17-.34.38-.64.62-.9.24-.25.53-.45.86-.58.34-.13.75-.17,1.23-.13.49.05.91.19,1.25.42s.62.52.82.86c.21.34.35.73.42,1.16s.09.87.05,1.31c-.03.29-.08.57-.16.86-.08.28-.18.55-.32.81-.13.25-.29.49-.49.71-.19.22-.42.4-.69.54l-.73-1.08c.38-.18.69-.45.91-.81.22-.36.35-.76.39-1.19.02-.25.01-.51-.04-.77-.05-.26-.14-.5-.26-.72-.12-.22-.29-.4-.49-.55-.2-.15-.44-.24-.72-.27-.31-.03-.56,0-.76.08-.2.08-.38.23-.54.43-.16.2-.31.46-.45.77-.14.31-.31.68-.5,1.11-.15.34-.3.66-.48.94-.17.28-.37.52-.6.72-.23.2-.5.35-.8.44s-.66.13-1.07.09c-.47-.05-.88-.18-1.21-.4-.34-.22-.61-.5-.81-.84-.21-.34-.35-.71-.43-1.12-.08-.41-.1-.83-.06-1.27.05-.56.19-1.06.4-1.5.22-.44.56-.83,1.02-1.15l.74,1.04Z"/>
      <path d="M7.24,44.74c-.33.16-.59.35-.78.58s-.32.51-.4.82c-.09.35-.11.68-.06.98.05.3.17.57.34.8.17.23.39.43.65.59.26.16.56.29.88.37.33.08.64.11.96.08.31-.03.6-.11.86-.24.26-.13.49-.31.68-.54s.32-.51.41-.84c.18-.7.05-1.3-.38-1.81l.95-.6c.27.4.44.82.5,1.28s.03.92-.09,1.38c-.12.49-.32.92-.59,1.28-.27.37-.58.65-.96.86-.37.21-.78.34-1.23.4-.45.05-.92.02-1.4-.1-.48-.12-.9-.31-1.27-.58-.37-.26-.66-.58-.89-.94-.22-.37-.37-.77-.43-1.22-.06-.45-.03-.91.09-1.4.12-.47.31-.89.58-1.27s.62-.68,1.04-.91l.53,1.03Z"/>
      <path d="M8.21,41.67c-.28-.11-.54-.2-.79-.28-.25-.08-.47-.16-.67-.24l.38-.96c.17.07.33.13.5.18.17.06.34.12.51.19v-.03c-.11-.13-.21-.28-.3-.46-.09-.18-.15-.38-.19-.6-.04-.22-.05-.45-.03-.69.02-.24.08-.49.18-.74.03-.07.06-.14.1-.2.04-.07.08-.13.13-.19l1,.47c-.12.15-.22.32-.29.52-.25.62-.23,1.16.07,1.6.29.44.79.8,1.49,1.08l2.97,1.18-.4,1.02-4.65-1.84Z"/>
      <path d="M11.87,37.21c-.45-.25-.81-.56-1.08-.93-.28-.36-.47-.75-.58-1.17-.11-.42-.13-.85-.06-1.31s.23-.9.48-1.34c.25-.44.55-.8.91-1.09.36-.29.75-.49,1.16-.61.42-.12.85-.15,1.3-.09.45.05.9.21,1.35.46.45.25.81.56,1.08.93.28.36.47.75.58,1.17s.13.85.06,1.31-.23.9-.48,1.34c-.25.44-.56.8-.91,1.09-.36.29-.75.49-1.16.61s-.85.15-1.3.09c-.45-.05-.9-.21-1.35-.46ZM12.46,36.19c.3.17.6.28.91.34.31.05.61.04.9-.02.29-.07.56-.2.81-.38.25-.18.46-.43.64-.74.18-.31.28-.62.31-.93.03-.31,0-.61-.08-.9-.09-.29-.23-.55-.44-.79-.2-.24-.45-.44-.75-.62s-.6-.28-.91-.34c-.31-.05-.61-.04-.9.02-.29.07-.56.2-.81.38-.25.18-.46.43-.64.74-.18.31-.28.62-.31.93-.03.31,0,.61.08.9.09.29.23.55.44.79.2.24.45.44.75.62Z"/>
      <path d="M11.15,24.59l.66-.87,8.45,6.37-.66.87-8.45-6.37Z"/>
      <path d="M14.17,20.84l.72-.82,7.92,7.02-.72.82-7.92-7.02Z"/>
      <path d="M27.04,12.54c-.35-.14-.69-.17-1.04-.09-.35.08-.67.22-.95.43-.21.16-.4.33-.56.54-.16.2-.29.42-.37.64-.08.22-.11.46-.08.7.03.24.13.48.3.72.13.18.28.32.44.42.16.1.34.16.55.17.21.02.46,0,.75-.07.29-.06.63-.16,1.02-.3.38-.13.76-.24,1.13-.34.37-.1.73-.15,1.08-.14.35,0,.68.1,1.01.26.32.16.63.44.92.83.29.4.47.8.53,1.21.06.41.03.81-.09,1.19-.12.38-.31.75-.58,1.09-.27.34-.58.65-.94.91-.23.17-.48.32-.74.45-.26.13-.53.23-.81.3s-.56.11-.85.11c-.29,0-.58-.05-.86-.16l.32-1.26c.39.17.79.21,1.21.13.42-.08.8-.24,1.15-.5.2-.15.39-.33.55-.54.16-.21.28-.44.36-.68.08-.24.11-.48.09-.73-.02-.25-.12-.49-.28-.71-.18-.25-.37-.42-.57-.51-.2-.09-.42-.13-.68-.12-.26.01-.55.07-.88.18-.33.1-.71.23-1.16.37-.35.12-.69.21-1.02.27s-.64.07-.94.03c-.3-.04-.59-.14-.87-.3-.28-.16-.54-.41-.78-.74-.28-.38-.45-.77-.51-1.17-.06-.4-.03-.78.08-1.16s.3-.74.55-1.07c.25-.34.55-.63.91-.89.45-.33.91-.57,1.39-.7.47-.14.99-.14,1.53,0l-.28,1.25Z"/>
      <path d="M36.54,10.82c-.34-.14-.65-.2-.95-.19-.3.01-.59.1-.88.25-.32.17-.58.37-.77.61-.19.24-.31.5-.37.79-.06.28-.06.58,0,.88.05.3.16.6.31.9.16.3.35.55.58.76.23.21.48.37.76.48.27.11.56.16.86.14s.6-.1.89-.25c.64-.33,1-.83,1.1-1.49l1.08.31c-.11.47-.32.88-.62,1.23-.3.35-.66.63-1.09.85-.45.23-.9.37-1.35.42-.45.05-.88,0-1.28-.14s-.77-.35-1.11-.65c-.34-.3-.63-.67-.86-1.11-.23-.44-.37-.88-.42-1.33-.05-.45-.01-.88.11-1.29s.33-.79.62-1.14c.29-.35.66-.63,1.1-.87.43-.22.88-.36,1.34-.42.46-.05.92,0,1.37.17l-.41,1.08Z"/>
      <path d="M39.48,9.48c-.1-.28-.21-.54-.32-.78-.11-.24-.2-.46-.27-.66l.97-.36c.06.17.13.33.2.49.07.16.14.33.2.51h.03c.02-.18.06-.36.14-.55.08-.19.18-.37.31-.54.13-.17.3-.33.49-.48.19-.15.42-.27.67-.36.07-.03.14-.05.21-.06s.15-.03.23-.03l.32,1.06c-.19.01-.39.05-.58.12-.63.23-1.01.61-1.15,1.12-.13.51-.07,1.12.19,1.83l1.11,2.99-1.02.38-1.73-4.69Z"/>
      <path d="M45.24,9.23c-.11-.5-.12-.98-.03-1.42.09-.45.25-.85.48-1.21.24-.36.55-.67.93-.92.38-.25.82-.43,1.32-.54.49-.11.97-.12,1.42-.05s.87.23,1.23.46c.36.23.68.53.94.91.26.37.45.81.55,1.31.11.5.12.98.03,1.42-.09.45-.25.85-.48,1.21-.24.36-.55.67-.93.92-.38.25-.82.43-1.32.54-.49.11-.97.12-1.42.05-.46-.07-.87-.23-1.23-.46-.36-.23-.68-.53-.94-.91-.26-.37-.45-.81-.55-1.31ZM46.39,8.99c.07.34.19.64.36.9.17.27.37.48.62.65.25.17.52.29.83.35s.63.06.98-.02c.35-.07.65-.2.9-.39.25-.18.46-.4.61-.66.15-.26.25-.54.3-.85.04-.31.03-.63-.04-.97-.07-.34-.19-.64-.36-.9-.17-.27-.37-.48-.62-.65s-.52-.29-.83-.35-.63-.06-.98.02c-.35.07-.65.2-.9.39-.25.18-.46.4-.61.66-.15.26-.25.54-.3.85-.04.31-.03.63.04.97Z"/>
      <path d="M54.17.27l1.09-.09.9,10.55-1.09.09-.89-10.55Z"/>
      <path d="M58.85.02l1.09-.02.17,10.58-1.09.02L58.85.02Z"/>
    </g>
  </g>
</svg>