<?xml version="1.0" encoding="UTF-8"?>
<svg id="_レイヤー_2" data-name="レイヤー 2" xmlns="http://www.w3.org/2000/svg" viewBox="0 0 123.79 123.91">
  <defs>
    <style>
      .cls-1 {
        font-family: Avenir-Roman, Avenir;
        font-size: 14px;
      }
    </style>
  </defs>
  <g id="_メインビジュアル" data-name="メインビジュアル">
    <g>
      <text class="cls-1" transform="translate(66.13 11.98) rotate(9.23)"><tspan x="0" y="0">S</tspan></text>
      <text class="cls-1" transform="translate(74.25 13.37) rotate(18.12)"><tspan x="0" y="0">c</tspan></text>
      <text class="cls-1" transform="translate(81.11 15.71) rotate(25.42)"><tspan x="0" y="0">r</tspan></text>
      <text class="cls-1" transform="translate(86.02 17.95) rotate(33.55)"><tspan x="0" y="0">o</tspan></text>
      <text class="cls-1" transform="translate(93.26 22.98) rotate(40.77)"><tspan x="0" y="0">l</tspan></text>
      <text class="cls-1" transform="translate(96.25 25.59) rotate(45.3)"><tspan x="0" y="0">l</tspan></text>
      <text class="cls-1" transform="translate(99.04 28.42) rotate(50.13)"><tspan x="0" y="0"> </tspan></text>
      <text class="cls-1" transform="translate(101.88 31.87) rotate(55.23)"><tspan x="0" y="0"> </tspan></text>
      <text class="cls-1" transform="translate(104.47 35.44) rotate(62.49)"><tspan x="0" y="0">S</tspan></text>
      <text class="cls-1" transform="translate(108.21 42.77) rotate(71.37)"><tspan x="0" y="0">c</tspan></text>
      <text class="cls-1" transform="translate(110.44 49.67) rotate(78.68)"><tspan x="0" y="0">r</tspan></text>
      <text class="cls-1" transform="translate(111.58 54.95) rotate(86.78)"><tspan x="0" y="0">o</tspan></text>
      <text class="cls-1" transform="translate(111.89 63.77) rotate(93.94)"><tspan x="0" y="0">l</tspan></text>
      <text class="cls-1" transform="translate(111.59 67.73) rotate(98.48)"><tspan x="0" y="0">l</tspan></text>
      <text class="cls-1" transform="translate(110.99 71.65) rotate(103.36)"><tspan x="0" y="0"> </tspan></text>
      <text class="cls-1" transform="translate(109.93 76) rotate(108.52)"><tspan x="0" y="0"> </tspan></text>
      <text class="cls-1" transform="translate(108.62 80.2) rotate(115.81)"><tspan x="0" y="0">S</tspan></text>
      <text class="cls-1" transform="translate(104.98 87.57) rotate(124.64)"><tspan x="0" y="0">c</tspan></text>
      <text class="cls-1" transform="translate(100.78 93.49) rotate(131.88)"><tspan x="0" y="0">r</tspan></text>
      <text class="cls-1" transform="translate(97.23 97.57) rotate(139.95)"><tspan x="0" y="0">o</tspan></text>
      <text class="cls-1" transform="translate(90.35 103.11) rotate(147.21)"><tspan x="0" y="0">l</tspan></text>
      <text class="cls-1" transform="translate(87.01 105.23) rotate(151.75)"><tspan x="0" y="0">l</tspan></text>
      <text class="cls-1" transform="translate(83.51 107.09) rotate(156.61)"><tspan x="0" y="0"> </tspan></text>
      <text class="cls-1" transform="translate(79.38 108.85) rotate(161.79)"><tspan x="0" y="0"> </tspan></text>
      <text class="cls-1" transform="translate(75.22 110.32) rotate(169.11)"><tspan x="0" y="0">S</tspan></text>
      <text class="cls-1" transform="translate(67.14 111.79) rotate(177.89)"><tspan x="0" y="0">c</tspan></text>
      <text class="cls-1" transform="translate(59.89 111.97) rotate(-174.95)"><tspan x="0" y="0">r</tspan></text>
      <text class="cls-1" transform="translate(54.5 111.59) rotate(-166.82)"><tspan x="0" y="0">o</tspan></text>
      <text class="cls-1" transform="translate(45.95 109.39) rotate(-159.49)"><tspan x="0" y="0">l</tspan></text>
      <text class="cls-1" transform="translate(42.25 107.98) rotate(-154.93)"><tspan x="0" y="0">l</tspan></text>
      <text class="cls-1" transform="translate(38.66 106.28) rotate(-150.06)"><tspan x="0" y="0"> </tspan></text>
      <text class="cls-1" transform="translate(34.79 104.02) rotate(-144.93)"><tspan x="0" y="0"> </tspan></text>
      <text class="cls-1" transform="translate(31.13 101.56) rotate(-137.69)"><tspan x="0" y="0">S</tspan></text>
      <text class="cls-1" transform="translate(25.1 95.98) rotate(-128.93)"><tspan x="0" y="0">c</tspan></text>
      <text class="cls-1" transform="translate(20.61 90.28) rotate(-121.69)"><tspan x="0" y="0">r</tspan></text>
      <text class="cls-1" transform="translate(17.69 85.72) rotate(-113.54)"><tspan x="0" y="0">o</tspan></text>
      <text class="cls-1" transform="translate(14.36 77.59) rotate(-106.26)"><tspan x="0" y="0">l</tspan></text>
      <text class="cls-1" transform="translate(13.26 73.75) rotate(-101.65)"><tspan x="0" y="0">l</tspan></text>
      <text class="cls-1" transform="translate(12.48 69.86) rotate(-96.79)"><tspan x="0" y="0"> </tspan></text>
      <text class="cls-1" transform="translate(11.97 65.41) rotate(-91.7)"><tspan x="0" y="0"> </tspan></text>
      <text class="cls-1" transform="translate(11.75 61.01) rotate(-84.54)"><tspan x="0" y="0">S</tspan></text>
      <text class="cls-1" transform="translate(12.61 52.84) rotate(-75.71)"><tspan x="0" y="0">c</tspan></text>
      <text class="cls-1" transform="translate(14.48 45.84) rotate(-68.39)"><tspan x="0" y="0">r</tspan></text>
      <text class="cls-1" transform="translate(16.4 40.77) rotate(-60.23)"><tspan x="0" y="0">o</tspan></text>
      <text class="cls-1" transform="translate(20.93 33.23) rotate(-53)"><tspan x="0" y="0">l</tspan></text>
      <text class="cls-1" transform="translate(23.34 30.07) rotate(-48.46)"><tspan x="0" y="0">l</tspan></text>
      <text class="cls-1" transform="translate(25.99 27.1) rotate(-43.63)"><tspan x="0" y="0"> </tspan></text>
      <text class="cls-1" transform="translate(29.12 24) rotate(-36.41)"><tspan x="0" y="0">S</tspan></text>
      <text class="cls-1" transform="translate(35.77 19.18) rotate(-27.6)"><tspan x="0" y="0">c</tspan></text>
      <text class="cls-1" transform="translate(42.25 15.89) rotate(-20.29)"><tspan x="0" y="0">r</tspan></text>
      <text class="cls-1" transform="translate(47.29 13.94) rotate(-12.1)"><tspan x="0" y="0">o</tspan></text>
      <text class="cls-1" transform="translate(55.94 12.28) rotate(-4.85)"><tspan x="0" y="0">l</tspan></text>
      <text class="cls-1" transform="translate(59.89 11.98) rotate(-.93)"><tspan x="0" y="0">l</tspan></text>
      <text class="cls-1" transform="translate(63.88 11.95) rotate(4.44)"><tspan x="0" y="0"> </tspan></text>
      <text class="cls-1" transform="translate(68.32 12.33) rotate(9.54)"><tspan x="0" y="0"> </tspan></text>
      <text class="cls-1" transform="translate(72.75 13.1) rotate(14.72)"><tspan x="0" y="0"> </tspan></text>
    </g>
  </g>
</svg>