<?xml version="1.0" encoding="UTF-8"?>
<svg preserveAspectRatio="none" id="_レイヤー_2" data-name="レイヤー 2" xmlns="http://www.w3.org/2000/svg" viewBox="0 0 317.91 502.82">
  <defs>
    <style>
      .cls-1 {
        fill: #fff;
      }
    </style>
  </defs>
  <g id="ABOUT">
    <g id="_コンセプト" data-name="コンセプト">
      <path class="cls-1" d="M306.45,500.36c-3.6,0-3.6,1.73-7.19,1.73-3.6,0-3.6-.49-7.19-.49-3.6,0-3.6-.35-7.19-.35s-3.6-1.02-7.19-1.02c-3.6,0-3.6.9-7.19.9-3.6,0-3.6-1.07-7.19-1.07-3.6,0-3.6,1.93-7.19,1.93-3.6,0-3.6-1.28-7.19-1.28-3.6,0-3.6-.6-7.19-.6-3.6,0-3.6,2.59-7.19,2.59-3.6,0-3.6-1.39-7.19-1.39-3.6,0-3.6,1.45-7.2,1.45-3.59,0-3.59-.46-7.19-.46-3.59,0-3.59.05-7.19.05s-3.6.3-7.19.3-3.6-2.57-7.19-2.57-3.6,2.73-7.19,2.73-3.6-2.1-7.19-2.1c-3.6,0-3.6-.23-7.19-.23-3.6,0-3.6,1.95-7.19,1.95-3.6,0-3.6-.02-7.2-.02-3.6,0-3.6-1.96-7.19-1.96-3.6,0-3.6,1.63-7.19,1.63s-3.6-.38-7.19-.38-3.6.09-7.2.09-3.6-1.79-7.19-1.79c-3.6,0-3.6,1.64-7.2,1.64-3.6,0-3.6.84-7.2.84s-3.6-.9-7.2-.9c-3.6,0-3.6,1.14-7.2,1.14-3.6,0-3.6-.52-7.2-.52-3.6,0-3.6-1.45-7.2-1.45-3.6,0-3.6,1.75-7.19,1.75-3.6,0-3.6.31-7.2.31s-3.6-.55-7.2-.55c-3.6,0-3.6.52-7.2.52-3.6,0-3.6-1.72-7.2-1.72-3.6,0-3.6.41-7.19.41-3.6,0-3.6-1.24-7.2-1.24-3.6,0-3.6.09-7.21.09-3.6,0-3.6,1.66-7.21,1.66-2.76,0-4.79-2.18-6.6-3.99S.04,494.16.04,491.4c0-3.58,2.29-3.58,2.29-7.16s-.33-3.58-.33-7.16-.61-3.58-.61-7.16c0-3.58,1.16-3.58,1.16-7.16,0-3.58-2.23-3.58-2.23-7.16,0-3.58,2.38-3.58,2.38-7.16,0-3.58-.85-3.58-.85-7.16,0-3.58.75-3.58.75-7.16,0-3.58-1.19-3.58-1.19-7.16,0-3.58,1.04-3.58,1.04-7.16,0-3.58-1.59-3.58-1.59-7.16,0-3.58.91-3.58.91-7.16s-.12-3.58-.12-7.16c0-3.58-.98-3.58-.98-7.16s1.55-3.58,1.55-7.16.5-3.58.5-7.16-.1-3.58-.1-7.16c0-3.58.28-3.58.28-7.16,0-3.58-2.18-3.58-2.18-7.16s0-3.58,0-7.16,1.43-3.58,1.43-7.16c0-3.58.13-3.58.13-7.16,0-3.58-.99-3.58-.99-7.16,0-3.58-.43-3.58-.43-7.17,0-3.58.33-3.58.33-7.16,0-3.58-.47-3.58-.47-7.16s.4-3.58.4-7.16c0-3.58.29-3.58.29-7.16s.95-3.58.95-7.16-1.86-3.58-1.86-7.16c0-3.58,1.82-3.58,1.82-7.16,0-3.58.47-3.58.47-7.16,0-3.58-1.5-3.58-1.5-7.16,0-3.58-.31-3.58-.31-7.16,0-3.58.68-3.58.68-7.16,0-3.58-1.15-3.58-1.15-7.17s-.24-3.58-.24-7.16-.19-3.58-.19-7.17c0-3.58.89-3.58.89-7.16,0-3.58-.52-3.58-.52-7.16,0-3.58-.33-3.58-.33-7.16s1.95-3.58,1.95-7.16.51-3.58.51-7.16c0-3.58-2.57-3.58-2.57-7.16,0-3.58-.02-3.58-.02-7.17s1.52-3.58,1.52-7.16c0-3.58-.94-3.58-.94-7.17s-.2-3.58-.2-7.16-.32-3.58-.32-7.16,1.83-3.58,1.83-7.16c0-3.58-.78-3.58-.78-7.17,0-3.58,1.36-3.58,1.36-7.16,0-3.58-1.98-3.58-1.98-7.17,0-3.58,2.08-3.58,2.08-7.17,0-3.58-.98-3.58-.98-7.17,0-3.58-.75-3.58-.75-7.17,0-3.58.22-3.58.22-7.17,0-3.58-.24-3.58-.24-7.17,0-3.58.18-3.58.18-7.16,0-3.58-.99-3.58-.99-7.17s.52-3.58.52-7.17c0-3.58,2.02-3.58,2.02-7.17s-1.37-3.58-1.37-7.17c0-3.58.45-3.58.45-7.17,0-3.59-1.46-3.59-1.46-7.17s1.09-3.59,1.09-7.18.95-3.59.95-7.18c0-2.76.64-4.97,2.45-6.78,1.81-1.81,4.02-2.92,6.78-2.92C15.04,1.7,15.04.11,18.64.11s3.6,2.78,7.19,2.78,3.6-1.56,7.19-1.56,3.6-.3,7.19-.3,3.6-.34,7.19-.34,3.6-.14,7.19-.14,3.6.88,7.19.88,3.6-.74,7.19-.74,3.6,2.12,7.19,2.12,3.6-2.23,7.19-2.23,3.6-.09,7.19-.09,3.6.29,7.2.29,3.59,1.82,7.19,1.82,3.59-1.87,7.19-1.87,3.6-.35,7.19-.35,3.6-.01,7.19-.01,3.6-.36,7.19-.36,3.6,2.15,7.19,2.15,3.6-1.16,7.19-1.16,3.6.65,7.19.65,3.6,1.02,7.2,1.02,3.6-2.53,7.19-2.53,3.6,1.54,7.19,1.54,3.6-.39,7.19-.39,3.6.37,7.2.37,3.6-.92,7.19-.92,3.6,1.69,7.2,1.69S209.27.05,212.87.05s3.6,1.81,7.2,1.81,3.6-.78,7.2-.78,3.6,1.78,7.2,1.78,3.6-2.63,7.2-2.63,3.6,1.42,7.19,1.42,3.6-.79,7.2-.79,3.6.05,7.2.05,3.6-.13,7.2-.13,3.6.44,7.2.44,3.6-1.07,7.19-1.07,3.6.62,7.2.62,3.6,1.15,7.21,1.15,3.6-1.09,7.21-1.09c2.76,0,5.64,1.3,7.45,3.11s1.25,4.69,1.25,7.45c0,3.58.6,3.58.6,7.16s.14,3.58.14,7.16-.48,3.58-.48,7.16c0,3.58.7,3.58.7,7.16q0,3.58,0,7.16c0,3.58-.75,3.58-.75,7.16,0,3.58,2.31,3.58,2.31,7.16,0,3.58-.93,3.58-.93,7.16,0,3.58.99,3.58.99,7.16,0,3.58-2.26,3.58-2.26,7.16,0,3.58,1.33,3.58,1.33,7.16,0,3.58-.41,3.58-.41,7.16,0,3.58-1.12,3.58-1.12,7.16s1.04,3.58,1.04,7.16c0,3.58-.44,3.58-.44,7.16s.6,3.58.6,7.16c0,3.58,1.09,3.58,1.09,7.16s-.17,3.58-.17,7.16c0,3.58-2.37,3.58-2.37,7.16s2.12,3.58,2.12,7.16c0,3.58.7,3.58.7,7.16,0,3.58-.45,3.58-.45,7.16,0,3.58-1.41,3.58-1.41,7.16s1.89,3.58,1.89,7.17q0,3.58,0,7.16c0,3.58-1.98,3.58-1.98,7.16s.92,3.58.92,7.16-1.35,3.58-1.35,7.16c0,3.58,1.05,3.58,1.05,7.16s.67,3.58.67,7.16c0,3.58-1.03,3.58-1.03,7.16,0,3.58-.96,3.58-.96,7.16s.43,3.58.43,7.16,1.05,3.58,1.05,7.16c0,3.58.9,3.58.9,7.16,0,3.58-2.11,3.58-2.11,7.17,0,3.58,1.41,3.58,1.41,7.16,0,3.58-1.69,3.58-1.69,7.17s2.17,3.58,2.17,7.16c0,3.58.5,3.58.5,7.16,0,3.58-.57,3.58-.57,7.16s.17,3.58.17,7.16-.07,3.58-.07,7.16c0,3.58-.52,3.58-.52,7.16s-.77,3.58-.77,7.17c0,3.58-.92,3.58-.92,7.16,0,3.58,1.14,3.58,1.14,7.17s-1.14,3.58-1.14,7.16c0,3.58,1.67,3.58,1.67,7.16s-.85,3.58-.85,7.16c0,3.58,1.86,3.58,1.86,7.17,0,3.58-1.95,3.58-1.95,7.16,0,3.58.36,3.58.36,7.17,0,3.58.51,3.58.51,7.17,0,3.58-1.5,3.58-1.5,7.17,0,3.58,1.21,3.58,1.21,7.17s1.22,3.58,1.22,7.17c0,3.58-2.28,3.58-2.28,7.17,0,3.58,2.47,3.58,2.47,7.16,0,3.58-2.17,3.58-2.17,7.17s.13,3.58.13,7.17c0,3.58.78,3.58.78,7.17,0,3.58-.86,3.58-.86,7.17,0,3.58.94,3.58.94,7.17,0,3.59.79,3.59.79,7.17,0,3.59-2.49,3.59-2.49,7.18,0,3.59,2.32,3.59,2.32,7.18,0,2.76-2.29,5-4.1,6.81s-4.05,2.15-6.81,2.15Z"/>
    </g>
  </g>
</svg>